{
	"patcher" : 	{
		"fileversion" : 1,
		"appversion" : 		{
			"major" : 8,
			"minor" : 5,
			"revision" : 3,
			"architecture" : "x64",
			"modernui" : 1
		}
,
		"classnamespace" : "box",
		"rect" : [ 41.0, 84.0, 1468.0, 705.0 ],
		"bglocked" : 0,
		"openinpresentation" : 0,
		"default_fontsize" : 12.0,
		"default_fontface" : 0,
		"default_fontname" : "Arial",
		"gridonopen" : 1,
		"gridsize" : [ 15.0, 15.0 ],
		"gridsnaponopen" : 1,
		"objectsnaponopen" : 1,
		"statusbarvisible" : 2,
		"toolbarvisible" : 1,
		"lefttoolbarpinned" : 0,
		"toptoolbarpinned" : 0,
		"righttoolbarpinned" : 0,
		"bottomtoolbarpinned" : 0,
		"toolbars_unpinned_last_save" : 0,
		"tallnewobj" : 0,
		"boxanimatetime" : 200,
		"enablehscroll" : 1,
		"enablevscroll" : 1,
		"devicewidth" : 0.0,
		"description" : "",
		"digest" : "",
		"tags" : "",
		"style" : "",
		"subpatcher_template" : "",
		"assistshowspatchername" : 0,
		"boxes" : [ 			{
				"box" : 				{
					"bgcolor" : [ 1.0, 0.988235294117647, 0.988235294117647, 0.0 ],
					"id" : "obj-44",
					"maxclass" : "comment",
					"numinlets" : 1,
					"numoutlets" : 0,
					"patching_rect" : [ 602.927393913269043, 575.955221772193909, 60.314229130744934, 22.0 ],
					"text" : "第三聲道",
					"textcolor" : [ 1.0, 0.211764705882353, 0.211764705882353, 1.0 ]
				}

			}
, 			{
				"box" : 				{
					"bgcolor" : [ 1.0, 0.988235294117647, 0.988235294117647, 0.0 ],
					"id" : "obj-43",
					"maxclass" : "comment",
					"numinlets" : 1,
					"numoutlets" : 0,
					"patching_rect" : [ 644.555652678012848, 610.417908072471619, 60.314229130744934, 22.0 ],
					"text" : "第四聲道",
					"textcolor" : [ 1.0, 0.211764705882353, 0.211764705882353, 1.0 ]
				}

			}
, 			{
				"box" : 				{
					"bgcolor" : [ 1.0, 0.988235294117647, 0.988235294117647, 0.0 ],
					"id" : "obj-42",
					"maxclass" : "comment",
					"numinlets" : 1,
					"numoutlets" : 0,
					"patching_rect" : [ 320.555652678012848, 610.417908072471619, 60.314229130744934, 22.0 ],
					"text" : "第二聲道",
					"textcolor" : [ 1.0, 0.211764705882353, 0.211764705882353, 1.0 ]
				}

			}
, 			{
				"box" : 				{
					"id" : "obj-26",
					"items" : [ "Off", ",", 1, "Left Output", ",", 2, "Right Output" ],
					"maxclass" : "umenu",
					"numinlets" : 1,
					"numoutlets" : 3,
					"outlettype" : [ "int", "", "" ],
					"parameter_enable" : 0,
					"patching_rect" : [ 710.609162092208862, 610.417908072471619, 101.75, 22.0 ]
				}

			}
, 			{
				"box" : 				{
					"id" : "obj-28",
					"items" : [ "Off", ",", 1, "Left Output", ",", 2, "Right Output" ],
					"maxclass" : "umenu",
					"numinlets" : 1,
					"numoutlets" : 3,
					"outlettype" : [ "int", "", "" ],
					"parameter_enable" : 0,
					"patching_rect" : [ 665.241623044013977, 575.955221772193909, 101.75, 22.0 ]
				}

			}
, 			{
				"box" : 				{
					"id" : "obj-38",
					"maxclass" : "message",
					"numinlets" : 2,
					"numoutlets" : 1,
					"outlettype" : [ "" ],
					"patching_rect" : [ 817.484162092208862, 532.631139576435089, 29.5, 22.0 ],
					"text" : "4"
				}

			}
, 			{
				"box" : 				{
					"id" : "obj-39",
					"maxclass" : "message",
					"numinlets" : 2,
					"numoutlets" : 1,
					"outlettype" : [ "" ],
					"patching_rect" : [ 774.484162092208862, 532.631139576435089, 29.5, 22.0 ],
					"text" : "3"
				}

			}
, 			{
				"box" : 				{
					"id" : "obj-40",
					"maxclass" : "newobj",
					"numinlets" : 2,
					"numoutlets" : 2,
					"outlettype" : [ "", "int" ],
					"patching_rect" : [ 817.484162092208862, 610.417908072471619, 101.0, 22.0 ],
					"text" : "adstatus output 4"
				}

			}
, 			{
				"box" : 				{
					"id" : "obj-41",
					"maxclass" : "newobj",
					"numinlets" : 2,
					"numoutlets" : 2,
					"outlettype" : [ "", "int" ],
					"patching_rect" : [ 774.484162092208862, 575.955221772193909, 101.0, 22.0 ],
					"text" : "adstatus output 3"
				}

			}
, 			{
				"box" : 				{
					"bgcolor" : [ 1.0, 0.988235294117647, 0.988235294117647, 0.0 ],
					"id" : "obj-1",
					"maxclass" : "comment",
					"numinlets" : 1,
					"numoutlets" : 0,
					"patching_rect" : [ 960.0, 7.829788208007812, 318.0, 22.0 ],
					"text" : "想要重新隨機調整所有音源的速度及位置，可以按這個 -->",
					"textcolor" : [ 1.0, 0.211764705882353, 0.211764705882353, 1.0 ]
				}

			}
, 			{
				"box" : 				{
					"id" : "obj-22",
					"maxclass" : "newobj",
					"numinlets" : 1,
					"numoutlets" : 1,
					"outlettype" : [ "bang" ],
					"patching_rect" : [ 1430.595744132995605, 13.829788208007812, 58.0, 22.0 ],
					"text" : "loadbang"
				}

			}
, 			{
				"box" : 				{
					"id" : "obj-163",
					"maxclass" : "button",
					"numinlets" : 1,
					"numoutlets" : 1,
					"outlettype" : [ "bang" ],
					"parameter_enable" : 0,
					"patching_rect" : [ 1280.0, 7.829788208007812, 24.0, 24.0 ]
				}

			}
, 			{
				"box" : 				{
					"id" : "obj-113",
					"maxclass" : "message",
					"numinlets" : 2,
					"numoutlets" : 1,
					"outlettype" : [ "" ],
					"patching_rect" : [ 2394.0, 518.0, 61.0, 22.0 ],
					"text" : "/speed $1"
				}

			}
, 			{
				"box" : 				{
					"fontname" : "Arial",
					"fontsize" : 13.0,
					"id" : "obj-115",
					"maxclass" : "newobj",
					"numinlets" : 2,
					"numoutlets" : 1,
					"outlettype" : [ "int" ],
					"patching_rect" : [ 2394.0, 493.0, 80.0, 23.0 ],
					"text" : "random 100"
				}

			}
, 			{
				"box" : 				{
					"fontname" : "Arial",
					"fontsize" : 13.0,
					"id" : "obj-116",
					"maxclass" : "newobj",
					"numinlets" : 2,
					"numoutlets" : 1,
					"outlettype" : [ "int" ],
					"patching_rect" : [ 2289.0, 494.0, 94.0, 23.0 ],
					"text" : "random 359"
				}

			}
, 			{
				"box" : 				{
					"id" : "obj-117",
					"maxclass" : "message",
					"numinlets" : 2,
					"numoutlets" : 1,
					"outlettype" : [ "" ],
					"patching_rect" : [ 2289.0, 518.0, 100.0, 22.0 ],
					"text" : "/init $1"
				}

			}
, 			{
				"box" : 				{
					"id" : "obj-118",
					"maxclass" : "message",
					"numinlets" : 2,
					"numoutlets" : 1,
					"outlettype" : [ "" ],
					"patching_rect" : [ 2198.0, 518.0, 61.0, 22.0 ],
					"text" : "/speed $1"
				}

			}
, 			{
				"box" : 				{
					"fontname" : "Arial",
					"fontsize" : 13.0,
					"id" : "obj-120",
					"maxclass" : "newobj",
					"numinlets" : 2,
					"numoutlets" : 1,
					"outlettype" : [ "int" ],
					"patching_rect" : [ 2198.0, 494.0, 78.0, 23.0 ],
					"text" : "random 100"
				}

			}
, 			{
				"box" : 				{
					"fontname" : "Arial",
					"fontsize" : 13.0,
					"id" : "obj-121",
					"maxclass" : "newobj",
					"numinlets" : 2,
					"numoutlets" : 1,
					"outlettype" : [ "int" ],
					"patching_rect" : [ 2093.0, 494.0, 94.0, 23.0 ],
					"text" : "random 359"
				}

			}
, 			{
				"box" : 				{
					"id" : "obj-122",
					"maxclass" : "message",
					"numinlets" : 2,
					"numoutlets" : 1,
					"outlettype" : [ "" ],
					"patching_rect" : [ 2093.0, 518.0, 44.0, 22.0 ],
					"text" : "/init $1"
				}

			}
, 			{
				"box" : 				{
					"id" : "obj-123",
					"maxclass" : "message",
					"numinlets" : 2,
					"numoutlets" : 1,
					"outlettype" : [ "" ],
					"patching_rect" : [ 1982.0, 518.0, 61.0, 22.0 ],
					"text" : "/speed $1"
				}

			}
, 			{
				"box" : 				{
					"fontname" : "Arial",
					"fontsize" : 13.0,
					"id" : "obj-125",
					"maxclass" : "newobj",
					"numinlets" : 2,
					"numoutlets" : 1,
					"outlettype" : [ "int" ],
					"patching_rect" : [ 1982.0, 494.0, 78.0, 23.0 ],
					"text" : "random 100"
				}

			}
, 			{
				"box" : 				{
					"fontname" : "Arial",
					"fontsize" : 13.0,
					"id" : "obj-126",
					"maxclass" : "newobj",
					"numinlets" : 2,
					"numoutlets" : 1,
					"outlettype" : [ "int" ],
					"patching_rect" : [ 1877.0, 494.0, 94.0, 23.0 ],
					"text" : "random 359"
				}

			}
, 			{
				"box" : 				{
					"id" : "obj-127",
					"maxclass" : "message",
					"numinlets" : 2,
					"numoutlets" : 1,
					"outlettype" : [ "" ],
					"patching_rect" : [ 1877.0, 518.0, 44.0, 22.0 ],
					"text" : "/init $1"
				}

			}
, 			{
				"box" : 				{
					"id" : "obj-128",
					"maxclass" : "message",
					"numinlets" : 2,
					"numoutlets" : 1,
					"outlettype" : [ "" ],
					"patching_rect" : [ 1780.0, 518.0, 61.0, 22.0 ],
					"text" : "/speed $1"
				}

			}
, 			{
				"box" : 				{
					"fontname" : "Arial",
					"fontsize" : 13.0,
					"id" : "obj-130",
					"maxclass" : "newobj",
					"numinlets" : 2,
					"numoutlets" : 1,
					"outlettype" : [ "int" ],
					"patching_rect" : [ 1780.0, 494.0, 78.0, 23.0 ],
					"text" : "random 100"
				}

			}
, 			{
				"box" : 				{
					"fontname" : "Arial",
					"fontsize" : 13.0,
					"id" : "obj-131",
					"maxclass" : "newobj",
					"numinlets" : 2,
					"numoutlets" : 1,
					"outlettype" : [ "int" ],
					"patching_rect" : [ 1675.0, 494.0, 94.0, 23.0 ],
					"text" : "random 359"
				}

			}
, 			{
				"box" : 				{
					"id" : "obj-142",
					"maxclass" : "message",
					"numinlets" : 2,
					"numoutlets" : 1,
					"outlettype" : [ "" ],
					"patching_rect" : [ 1675.0, 518.0, 44.0, 22.0 ],
					"text" : "/init $1"
				}

			}
, 			{
				"box" : 				{
					"id" : "obj-143",
					"maxclass" : "message",
					"numinlets" : 2,
					"numoutlets" : 1,
					"outlettype" : [ "" ],
					"patching_rect" : [ 1315.0, 518.0, 50.0, 22.0 ],
					"text" : "1"
				}

			}
, 			{
				"box" : 				{
					"id" : "obj-145",
					"maxclass" : "message",
					"numinlets" : 2,
					"numoutlets" : 1,
					"outlettype" : [ "" ],
					"patching_rect" : [ 1577.0, 518.0, 61.0, 22.0 ],
					"text" : "/speed $1"
				}

			}
, 			{
				"box" : 				{
					"fontname" : "Arial",
					"fontsize" : 13.0,
					"id" : "obj-147",
					"maxclass" : "newobj",
					"numinlets" : 2,
					"numoutlets" : 1,
					"outlettype" : [ "int" ],
					"patching_rect" : [ 1577.0, 493.0, 78.0, 23.0 ],
					"text" : "random 100"
				}

			}
, 			{
				"box" : 				{
					"id" : "obj-148",
					"maxclass" : "button",
					"numinlets" : 1,
					"numoutlets" : 1,
					"outlettype" : [ "bang" ],
					"parameter_enable" : 0,
					"patching_rect" : [ 1315.0, 393.343282461166382, 24.0, 24.0 ]
				}

			}
, 			{
				"box" : 				{
					"fontname" : "Arial",
					"fontsize" : 13.0,
					"id" : "obj-149",
					"maxclass" : "newobj",
					"numinlets" : 2,
					"numoutlets" : 1,
					"outlettype" : [ "int" ],
					"patching_rect" : [ 1472.0, 494.0, 94.0, 23.0 ],
					"text" : "random 359"
				}

			}
, 			{
				"box" : 				{
					"id" : "obj-150",
					"maxclass" : "message",
					"numinlets" : 2,
					"numoutlets" : 1,
					"outlettype" : [ "" ],
					"patching_rect" : [ 1472.0, 518.0, 44.0, 22.0 ],
					"text" : "/init $1"
				}

			}
, 			{
				"box" : 				{
					"id" : "obj-151",
					"maxclass" : "message",
					"numinlets" : 2,
					"numoutlets" : 1,
					"outlettype" : [ "" ],
					"patching_rect" : [ 2289.0, 677.170211791992188, 100.0, 22.0 ],
					"text" : "/track/10/azim $1"
				}

			}
, 			{
				"box" : 				{
					"bgmode" : 0,
					"border" : 0,
					"clickthrough" : 0,
					"enablehscroll" : 0,
					"enablevscroll" : 0,
					"id" : "obj-152",
					"lockeddragscroll" : 0,
					"lockedsize" : 0,
					"maxclass" : "bpatcher",
					"name" : "spat5.around.maxpat",
					"numinlets" : 1,
					"numoutlets" : 1,
					"offset" : [ 0.0, 0.0 ],
					"outlettype" : [ "" ],
					"patching_rect" : [ 2289.0, 557.170211791992188, 130.0, 110.0 ],
					"viewvisibility" : 1
				}

			}
, 			{
				"box" : 				{
					"id" : "obj-154",
					"maxclass" : "message",
					"numinlets" : 2,
					"numoutlets" : 1,
					"outlettype" : [ "" ],
					"patching_rect" : [ 2093.0, 674.0, 93.0, 22.0 ],
					"text" : "/track/9/azim $1"
				}

			}
, 			{
				"box" : 				{
					"bgmode" : 0,
					"border" : 0,
					"clickthrough" : 0,
					"enablehscroll" : 0,
					"enablevscroll" : 0,
					"id" : "obj-155",
					"lockeddragscroll" : 0,
					"lockedsize" : 0,
					"maxclass" : "bpatcher",
					"name" : "spat5.around.maxpat",
					"numinlets" : 1,
					"numoutlets" : 1,
					"offset" : [ 0.0, 0.0 ],
					"outlettype" : [ "" ],
					"patching_rect" : [ 2093.0, 554.0, 130.0, 110.0 ],
					"viewvisibility" : 1
				}

			}
, 			{
				"box" : 				{
					"id" : "obj-156",
					"maxclass" : "message",
					"numinlets" : 2,
					"numoutlets" : 1,
					"outlettype" : [ "" ],
					"patching_rect" : [ 1877.0, 674.0, 93.0, 22.0 ],
					"text" : "/track/8/azim $1"
				}

			}
, 			{
				"box" : 				{
					"bgmode" : 0,
					"border" : 0,
					"clickthrough" : 0,
					"enablehscroll" : 0,
					"enablevscroll" : 0,
					"id" : "obj-157",
					"lockeddragscroll" : 0,
					"lockedsize" : 0,
					"maxclass" : "bpatcher",
					"name" : "spat5.around.maxpat",
					"numinlets" : 1,
					"numoutlets" : 1,
					"offset" : [ 0.0, 0.0 ],
					"outlettype" : [ "" ],
					"patching_rect" : [ 1877.0, 554.0, 130.0, 110.0 ],
					"viewvisibility" : 1
				}

			}
, 			{
				"box" : 				{
					"id" : "obj-158",
					"maxclass" : "message",
					"numinlets" : 2,
					"numoutlets" : 1,
					"outlettype" : [ "" ],
					"patching_rect" : [ 1674.5, 674.0, 93.0, 22.0 ],
					"text" : "/track/7/azim $1"
				}

			}
, 			{
				"box" : 				{
					"bgmode" : 0,
					"border" : 0,
					"clickthrough" : 0,
					"enablehscroll" : 0,
					"enablevscroll" : 0,
					"id" : "obj-159",
					"lockeddragscroll" : 0,
					"lockedsize" : 0,
					"maxclass" : "bpatcher",
					"name" : "spat5.around.maxpat",
					"numinlets" : 1,
					"numoutlets" : 1,
					"offset" : [ 0.0, 0.0 ],
					"outlettype" : [ "" ],
					"patching_rect" : [ 1674.5, 554.0, 130.0, 110.0 ],
					"viewvisibility" : 1
				}

			}
, 			{
				"box" : 				{
					"id" : "obj-160",
					"maxclass" : "message",
					"numinlets" : 2,
					"numoutlets" : 1,
					"outlettype" : [ "" ],
					"patching_rect" : [ 1472.0, 677.170211791992188, 93.0, 22.0 ],
					"text" : "/track/6/azim $1"
				}

			}
, 			{
				"box" : 				{
					"bgmode" : 0,
					"border" : 0,
					"clickthrough" : 0,
					"enablehscroll" : 0,
					"enablevscroll" : 0,
					"id" : "obj-161",
					"lockeddragscroll" : 0,
					"lockedsize" : 0,
					"maxclass" : "bpatcher",
					"name" : "spat5.around.maxpat",
					"numinlets" : 1,
					"numoutlets" : 1,
					"offset" : [ 0.0, 0.0 ],
					"outlettype" : [ "" ],
					"patching_rect" : [ 1472.0, 557.170211791992188, 130.0, 110.0 ],
					"viewvisibility" : 1
				}

			}
, 			{
				"box" : 				{
					"id" : "obj-107",
					"maxclass" : "message",
					"numinlets" : 2,
					"numoutlets" : 1,
					"outlettype" : [ "" ],
					"patching_rect" : [ 2328.0, 158.957449197769165, 61.0, 22.0 ],
					"text" : "/speed $1"
				}

			}
, 			{
				"box" : 				{
					"fontname" : "Arial",
					"fontsize" : 13.0,
					"id" : "obj-109",
					"maxclass" : "newobj",
					"numinlets" : 2,
					"numoutlets" : 1,
					"outlettype" : [ "int" ],
					"patching_rect" : [ 2328.0, 134.957449197769165, 78.0, 23.0 ],
					"text" : "random 200"
				}

			}
, 			{
				"box" : 				{
					"fontname" : "Arial",
					"fontsize" : 13.0,
					"id" : "obj-110",
					"maxclass" : "newobj",
					"numinlets" : 2,
					"numoutlets" : 1,
					"outlettype" : [ "int" ],
					"patching_rect" : [ 2223.0, 134.957449197769165, 94.0, 23.0 ],
					"text" : "random 359"
				}

			}
, 			{
				"box" : 				{
					"id" : "obj-111",
					"maxclass" : "message",
					"numinlets" : 2,
					"numoutlets" : 1,
					"outlettype" : [ "" ],
					"patching_rect" : [ 2223.0, 158.957449197769165, 44.0, 22.0 ],
					"text" : "/init $1"
				}

			}
, 			{
				"box" : 				{
					"id" : "obj-97",
					"maxclass" : "message",
					"numinlets" : 2,
					"numoutlets" : 1,
					"outlettype" : [ "" ],
					"patching_rect" : [ 2132.0, 158.957449197769165, 61.0, 22.0 ],
					"text" : "/speed $1"
				}

			}
, 			{
				"box" : 				{
					"fontname" : "Arial",
					"fontsize" : 13.0,
					"id" : "obj-99",
					"maxclass" : "newobj",
					"numinlets" : 2,
					"numoutlets" : 1,
					"outlettype" : [ "int" ],
					"patching_rect" : [ 2132.0, 134.957449197769165, 78.0, 23.0 ],
					"text" : "random 200"
				}

			}
, 			{
				"box" : 				{
					"fontname" : "Arial",
					"fontsize" : 13.0,
					"id" : "obj-100",
					"maxclass" : "newobj",
					"numinlets" : 2,
					"numoutlets" : 1,
					"outlettype" : [ "int" ],
					"patching_rect" : [ 2027.0, 134.957449197769165, 94.0, 23.0 ],
					"text" : "random 359"
				}

			}
, 			{
				"box" : 				{
					"id" : "obj-101",
					"maxclass" : "message",
					"numinlets" : 2,
					"numoutlets" : 1,
					"outlettype" : [ "" ],
					"patching_rect" : [ 2027.0, 158.957449197769165, 44.0, 22.0 ],
					"text" : "/init $1"
				}

			}
, 			{
				"box" : 				{
					"id" : "obj-88",
					"maxclass" : "message",
					"numinlets" : 2,
					"numoutlets" : 1,
					"outlettype" : [ "" ],
					"patching_rect" : [ 1916.0, 158.957449197769165, 61.0, 22.0 ],
					"text" : "/speed $1"
				}

			}
, 			{
				"box" : 				{
					"fontname" : "Arial",
					"fontsize" : 13.0,
					"id" : "obj-90",
					"maxclass" : "newobj",
					"numinlets" : 2,
					"numoutlets" : 1,
					"outlettype" : [ "int" ],
					"patching_rect" : [ 1916.0, 134.957449197769165, 78.0, 23.0 ],
					"text" : "random 200"
				}

			}
, 			{
				"box" : 				{
					"fontname" : "Arial",
					"fontsize" : 13.0,
					"id" : "obj-91",
					"maxclass" : "newobj",
					"numinlets" : 2,
					"numoutlets" : 1,
					"outlettype" : [ "int" ],
					"patching_rect" : [ 1811.0, 134.957449197769165, 94.0, 23.0 ],
					"text" : "random 359"
				}

			}
, 			{
				"box" : 				{
					"id" : "obj-92",
					"maxclass" : "message",
					"numinlets" : 2,
					"numoutlets" : 1,
					"outlettype" : [ "" ],
					"patching_rect" : [ 1811.0, 158.957449197769165, 44.0, 22.0 ],
					"text" : "/init $1"
				}

			}
, 			{
				"box" : 				{
					"id" : "obj-82",
					"maxclass" : "message",
					"numinlets" : 2,
					"numoutlets" : 1,
					"outlettype" : [ "" ],
					"patching_rect" : [ 1714.0, 158.957449197769165, 61.0, 22.0 ],
					"text" : "/speed $1"
				}

			}
, 			{
				"box" : 				{
					"fontname" : "Arial",
					"fontsize" : 13.0,
					"id" : "obj-84",
					"maxclass" : "newobj",
					"numinlets" : 2,
					"numoutlets" : 1,
					"outlettype" : [ "int" ],
					"patching_rect" : [ 1714.0, 134.957449197769165, 78.0, 23.0 ],
					"text" : "random 200"
				}

			}
, 			{
				"box" : 				{
					"fontname" : "Arial",
					"fontsize" : 13.0,
					"id" : "obj-85",
					"maxclass" : "newobj",
					"numinlets" : 2,
					"numoutlets" : 1,
					"outlettype" : [ "int" ],
					"patching_rect" : [ 1609.0, 134.957449197769165, 94.0, 23.0 ],
					"text" : "random 359"
				}

			}
, 			{
				"box" : 				{
					"id" : "obj-86",
					"maxclass" : "message",
					"numinlets" : 2,
					"numoutlets" : 1,
					"outlettype" : [ "" ],
					"patching_rect" : [ 1609.0, 158.957449197769165, 44.0, 22.0 ],
					"text" : "/init $1"
				}

			}
, 			{
				"box" : 				{
					"id" : "obj-81",
					"maxclass" : "message",
					"numinlets" : 2,
					"numoutlets" : 1,
					"outlettype" : [ "" ],
					"patching_rect" : [ 1315.0, 134.957449197769165, 29.5, 22.0 ],
					"text" : "1"
				}

			}
, 			{
				"box" : 				{
					"id" : "obj-80",
					"maxclass" : "message",
					"numinlets" : 2,
					"numoutlets" : 1,
					"outlettype" : [ "" ],
					"patching_rect" : [ 1511.0, 158.957449197769165, 61.0, 22.0 ],
					"text" : "/speed $1"
				}

			}
, 			{
				"box" : 				{
					"fontname" : "Arial",
					"fontsize" : 13.0,
					"id" : "obj-78",
					"maxclass" : "newobj",
					"numinlets" : 2,
					"numoutlets" : 1,
					"outlettype" : [ "int" ],
					"patching_rect" : [ 1511.0, 134.957449197769165, 78.0, 23.0 ],
					"text" : "random 200"
				}

			}
, 			{
				"box" : 				{
					"id" : "obj-77",
					"maxclass" : "button",
					"numinlets" : 1,
					"numoutlets" : 1,
					"outlettype" : [ "bang" ],
					"parameter_enable" : 0,
					"patching_rect" : [ 1315.0, 57.0, 24.0, 24.0 ]
				}

			}
, 			{
				"box" : 				{
					"fontname" : "Arial",
					"fontsize" : 13.0,
					"id" : "obj-75",
					"maxclass" : "newobj",
					"numinlets" : 2,
					"numoutlets" : 1,
					"outlettype" : [ "int" ],
					"patching_rect" : [ 1406.0, 134.957449197769165, 94.0, 23.0 ],
					"text" : "random 359"
				}

			}
, 			{
				"box" : 				{
					"id" : "obj-73",
					"maxclass" : "newobj",
					"numinlets" : 2,
					"numoutlets" : 1,
					"outlettype" : [ "int" ],
					"patching_rect" : [ 1342.0, 598.0, 49.0, 22.0 ],
					"text" : "random"
				}

			}
, 			{
				"box" : 				{
					"id" : "obj-70",
					"maxclass" : "message",
					"numinlets" : 2,
					"numoutlets" : 1,
					"outlettype" : [ "" ],
					"patching_rect" : [ 1406.0, 158.957449197769165, 44.0, 22.0 ],
					"text" : "/init $1"
				}

			}
, 			{
				"box" : 				{
					"id" : "obj-46",
					"maxclass" : "message",
					"numinlets" : 2,
					"numoutlets" : 1,
					"outlettype" : [ "" ],
					"patching_rect" : [ 2223.0, 318.127660989761353, 93.0, 22.0 ],
					"text" : "/track/5/azim $1"
				}

			}
, 			{
				"box" : 				{
					"bgmode" : 0,
					"border" : 0,
					"clickthrough" : 0,
					"enablehscroll" : 0,
					"enablevscroll" : 0,
					"id" : "obj-47",
					"lockeddragscroll" : 0,
					"lockedsize" : 0,
					"maxclass" : "bpatcher",
					"name" : "spat5.around.maxpat",
					"numinlets" : 1,
					"numoutlets" : 1,
					"offset" : [ 0.0, 0.0 ],
					"outlettype" : [ "" ],
					"patching_rect" : [ 2223.0, 198.127660989761353, 130.0, 110.0 ],
					"viewvisibility" : 1
				}

			}
, 			{
				"box" : 				{
					"id" : "obj-32",
					"maxclass" : "message",
					"numinlets" : 2,
					"numoutlets" : 1,
					"outlettype" : [ "" ],
					"patching_rect" : [ 2027.0, 314.957449197769165, 93.0, 22.0 ],
					"text" : "/track/4/azim $1"
				}

			}
, 			{
				"box" : 				{
					"bgmode" : 0,
					"border" : 0,
					"clickthrough" : 0,
					"enablehscroll" : 0,
					"enablevscroll" : 0,
					"id" : "obj-34",
					"lockeddragscroll" : 0,
					"lockedsize" : 0,
					"maxclass" : "bpatcher",
					"name" : "spat5.around.maxpat",
					"numinlets" : 1,
					"numoutlets" : 1,
					"offset" : [ 0.0, 0.0 ],
					"outlettype" : [ "" ],
					"patching_rect" : [ 2027.0, 194.957449197769165, 130.0, 110.0 ],
					"viewvisibility" : 1
				}

			}
, 			{
				"box" : 				{
					"id" : "obj-35",
					"maxclass" : "message",
					"numinlets" : 2,
					"numoutlets" : 1,
					"outlettype" : [ "" ],
					"patching_rect" : [ 1811.0, 314.957449197769165, 93.0, 22.0 ],
					"text" : "/track/3/azim $1"
				}

			}
, 			{
				"box" : 				{
					"bgmode" : 0,
					"border" : 0,
					"clickthrough" : 0,
					"enablehscroll" : 0,
					"enablevscroll" : 0,
					"id" : "obj-36",
					"lockeddragscroll" : 0,
					"lockedsize" : 0,
					"maxclass" : "bpatcher",
					"name" : "spat5.around.maxpat",
					"numinlets" : 1,
					"numoutlets" : 1,
					"offset" : [ 0.0, 0.0 ],
					"outlettype" : [ "" ],
					"patching_rect" : [ 1811.0, 194.957449197769165, 130.0, 110.0 ],
					"viewvisibility" : 1
				}

			}
, 			{
				"box" : 				{
					"id" : "obj-30",
					"maxclass" : "newobj",
					"numinlets" : 1,
					"numoutlets" : 1,
					"outlettype" : [ "" ],
					"patching_rect" : [ 1405.5, 734.872339010238647, 29.0, 22.0 ],
					"text" : "thru"
				}

			}
, 			{
				"box" : 				{
					"id" : "obj-11",
					"maxclass" : "message",
					"numinlets" : 2,
					"numoutlets" : 1,
					"outlettype" : [ "" ],
					"patching_rect" : [ 1608.5, 314.957449197769165, 93.0, 22.0 ],
					"text" : "/track/2/azim $1"
				}

			}
, 			{
				"box" : 				{
					"bgmode" : 0,
					"border" : 0,
					"clickthrough" : 0,
					"enablehscroll" : 0,
					"enablevscroll" : 0,
					"id" : "obj-19",
					"lockeddragscroll" : 0,
					"lockedsize" : 0,
					"maxclass" : "bpatcher",
					"name" : "spat5.around.maxpat",
					"numinlets" : 1,
					"numoutlets" : 1,
					"offset" : [ 0.0, 0.0 ],
					"outlettype" : [ "" ],
					"patching_rect" : [ 1608.5, 194.957449197769165, 130.0, 110.0 ],
					"viewvisibility" : 1
				}

			}
, 			{
				"box" : 				{
					"id" : "obj-3",
					"maxclass" : "message",
					"numinlets" : 2,
					"numoutlets" : 1,
					"outlettype" : [ "" ],
					"patching_rect" : [ 1406.0, 318.127660989761353, 93.0, 22.0 ],
					"text" : "/track/1/azim $1"
				}

			}
, 			{
				"box" : 				{
					"bgmode" : 0,
					"border" : 0,
					"clickthrough" : 0,
					"enablehscroll" : 0,
					"enablevscroll" : 0,
					"id" : "obj-10",
					"lockeddragscroll" : 0,
					"lockedsize" : 0,
					"maxclass" : "bpatcher",
					"name" : "spat5.around.maxpat",
					"numinlets" : 1,
					"numoutlets" : 1,
					"offset" : [ 0.0, 0.0 ],
					"outlettype" : [ "" ],
					"patching_rect" : [ 1406.0, 198.127660989761353, 130.0, 110.0 ],
					"viewvisibility" : 1
				}

			}
, 			{
				"box" : 				{
					"fontname" : "Arial",
					"fontsize" : 11.0,
					"id" : "obj-21",
					"maxclass" : "newobj",
					"numinlets" : 1,
					"numoutlets" : 2,
					"outlettype" : [ "multichannelsignal", "" ],
					"patching_rect" : [ 9.0, 331.0, 251.0, 21.0 ],
					"saved_object_attributes" : 					{
						"parameter_enable" : 0
					}
,
					"text" : "spat5.panoramix~ @inlets 10 @outlets 64 @mc 1"
				}

			}
, 			{
				"box" : 				{
					"id" : "obj-17",
					"maxclass" : "newobj",
					"numinlets" : 1,
					"numoutlets" : 4,
					"outlettype" : [ "", "", "", "" ],
					"patching_rect" : [ 708.095744132995605, 200.127660989761353, 225.0, 22.0 ],
					"saved_object_attributes" : 					{
						"parameter_enable" : 0
					}
,
					"text" : "spat5.panoramix @inlets 10 @outlets 64"
				}

			}
, 			{
				"box" : 				{
					"bgcolor" : [ 1.0, 0.988235294117647, 0.988235294117647, 0.0 ],
					"id" : "obj-2",
					"linecount" : 3,
					"maxclass" : "comment",
					"numinlets" : 1,
					"numoutlets" : 0,
					"patching_rect" : [ 720.595744132995605, 231.127660989761353, 237.0, 50.0 ],
					"text" : "雙擊上方 \"spat5.panoramix\" 可開啟音源控制面板，拖動右下方空間中藍色圓點，可模擬聲源移動位置",
					"textcolor" : [ 1.0, 0.211764705882353, 0.211764705882353, 1.0 ]
				}

			}
, 			{
				"box" : 				{
					"bgcolor" : [ 1.0, 0.988235294117647, 0.988235294117647, 0.0 ],
					"id" : "obj-5",
					"maxclass" : "comment",
					"numinlets" : 1,
					"numoutlets" : 0,
					"patching_rect" : [ 279.555652678012848, 575.955221772193909, 60.314229130744934, 22.0 ],
					"text" : "第一聲道",
					"textcolor" : [ 1.0, 0.211764705882353, 0.211764705882353, 1.0 ]
				}

			}
, 			{
				"box" : 				{
					"basictuning" : 440,
					"data" : 					{
						"clips" : [ 							{
								"absolutepath" : "DesertBGM2.mp3",
								"filename" : "DesertBGM2.mp3",
								"filekind" : "audiofile",
								"id" : "u312001097",
								"selection" : [ 0.0, 1.0 ],
								"loop" : 0,
								"content_state" : 								{

								}

							}
 ]
					}
,
					"followglobaltempo" : 0,
					"formantcorrection" : 0,
					"id" : "obj-37",
					"maxclass" : "playlist~",
					"mode" : "basic",
					"numinlets" : 1,
					"numoutlets" : 5,
					"originallength" : [ 0.0, "ticks" ],
					"originaltempo" : 120.0,
					"outlettype" : [ "signal", "signal", "signal", "", "dictionary" ],
					"parameter_enable" : 0,
					"patching_rect" : [ 9.0, 227.0, 150.0, 30.0 ],
					"pitchcorrection" : 0,
					"quality" : "basic",
					"timestretch" : [ 0 ]
				}

			}
, 			{
				"box" : 				{
					"id" : "obj-33",
					"maxclass" : "comment",
					"numinlets" : 1,
					"numoutlets" : 0,
					"patching_rect" : [ 201.0, 377.0, 99.0, 22.0 ],
					"text" : "總音量大小調整"
				}

			}
, 			{
				"box" : 				{
					"id" : "obj-23",
					"linecount" : 2,
					"maxclass" : "comment",
					"numinlets" : 1,
					"numoutlets" : 0,
					"patching_rect" : [ 1108.545723438262939, 426.328356981277466, 150.0, 35.0 ],
					"text" : "100\n(照理說不用動)"
				}

			}
, 			{
				"box" : 				{
					"id" : "obj-18",
					"maxclass" : "comment",
					"numinlets" : 1,
					"numoutlets" : 0,
					"patching_rect" : [ 978.803189754486084, 426.328356981277466, 100.0, 20.0 ],
					"text" : "64",
					"textcolor" : [ 1.0, 0.0, 0.0, 1.0 ]
				}

			}
, 			{
				"box" : 				{
					"bgcolor" : [ 1.0, 0.0, 0.0, 0.0 ],
					"id" : "obj-14",
					"maxclass" : "comment",
					"numinlets" : 1,
					"numoutlets" : 0,
					"patching_rect" : [ 701.366623044013977, 426.328356981277466, 100.0, 20.0 ],
					"text" : "On",
					"textcolor" : [ 1.0, 0.0, 0.0, 1.0 ]
				}

			}
, 			{
				"box" : 				{
					"bgcolor" : [ 1.0, 0.988235294117647, 0.988235294117647, 0.0 ],
					"id" : "obj-4",
					"maxclass" : "comment",
					"numinlets" : 1,
					"numoutlets" : 0,
					"patching_rect" : [ 462.053191542625427, 426.328356981277466, 224.0, 22.0 ],
					"text" : "輸出裝置",
					"textcolor" : [ 1.0, 0.211764705882353, 0.211764705882353, 1.0 ]
				}

			}
, 			{
				"box" : 				{
					"id" : "obj-132",
					"items" : [ "Off", ",", 1, "Left Output", ",", 2, "Right Output" ],
					"maxclass" : "umenu",
					"numinlets" : 1,
					"numoutlets" : 3,
					"outlettype" : [ "int", "", "" ],
					"parameter_enable" : 0,
					"patching_rect" : [ 390.678191542625427, 610.417908072471619, 101.75, 22.0 ]
				}

			}
, 			{
				"box" : 				{
					"id" : "obj-133",
					"items" : [ "Off", ",", 1, "Left Output", ",", 2, "Right Output" ],
					"maxclass" : "umenu",
					"numinlets" : 1,
					"numoutlets" : 3,
					"outlettype" : [ "int", "", "" ],
					"parameter_enable" : 0,
					"patching_rect" : [ 345.310652494430542, 575.955221772193909, 101.75, 22.0 ]
				}

			}
, 			{
				"box" : 				{
					"id" : "obj-144",
					"maxclass" : "newobj",
					"numinlets" : 1,
					"numoutlets" : 1,
					"outlettype" : [ "bang" ],
					"patching_rect" : [ 454.553191542625427, 466.272384643554688, 29.0, 22.0 ],
					"text" : "thru"
				}

			}
, 			{
				"box" : 				{
					"id" : "obj-140",
					"maxclass" : "number",
					"numinlets" : 1,
					"numoutlets" : 2,
					"outlettype" : [ "", "bang" ],
					"parameter_enable" : 0,
					"patching_rect" : [ 1108.545723438262939, 389.134329319000244, 50.0, 22.0 ]
				}

			}
, 			{
				"box" : 				{
					"id" : "obj-134",
					"items" : [ 1, ",", 2, ",", 4, ",", 8, ",", 16, ",", 32, ",", 64, ",", 128, ",", 256, ",", 512, ",", 1024, ",", 2048 ],
					"maxclass" : "umenu",
					"numinlets" : 1,
					"numoutlets" : 3,
					"outlettype" : [ "int", "", "" ],
					"parameter_enable" : 0,
					"patching_rect" : [ 978.803189754486084, 389.134329319000244, 100.0, 22.0 ]
				}

			}
, 			{
				"box" : 				{
					"id" : "obj-136",
					"items" : [ 11025, ",", 12000, ",", 16000, ",", 22050, ",", 24000, ",", 32000, ",", 44100, ",", 48000, ",", 88200, ",", 96000, ",", 192000 ],
					"maxclass" : "umenu",
					"numinlets" : 1,
					"numoutlets" : 3,
					"outlettype" : [ "int", "", "" ],
					"parameter_enable" : 0,
					"patching_rect" : [ 818.866623044013977, 393.343282461166382, 100.0, 22.0 ]
				}

			}
, 			{
				"box" : 				{
					"id" : "obj-139",
					"items" : [ "Off", ",", "On" ],
					"maxclass" : "umenu",
					"numinlets" : 1,
					"numoutlets" : 3,
					"outlettype" : [ "int", "", "" ],
					"parameter_enable" : 0,
					"patching_rect" : [ 701.366623044013977, 393.343282461166382, 100.0, 22.0 ]
				}

			}
, 			{
				"box" : 				{
					"id" : "obj-141",
					"items" : [ "None", ",", "ad_asio", "ASIO4ALL v2", ",", "ad_asio", "AudioBox ASIO Driver", ",", "ad_asio", "Dante Virtual Soundcard (x64)", ",", "ad_asio", "ioStation ASIO Driver", ",", "ad_asio", "Quantum ASIO driver", ",", "ad_asio", "Revelator ASIO", ",", "ad_asio", "Studio 192 ASIO", ",", "ad_asio", "Studio USB ASIO Driver", ",", "ad_asio", "StudioLive AR ASIO", ",", "ad_asio", "StudioLive Classic USB", ",", "ad_asio", "StudioLive Series III ASIO", ",", "ad_directsound", "", ",", "ad_mme", "", ",", "NonRealTime", ",", "ad_portaudio", "MME", ",", "ad_portaudio", "Windows DirectSound", ",", "ad_portaudio", "Windows WASAPI", ",", "ad_portaudio", "Windows WDM-KS", ",", "ad_rewire" ],
					"maxclass" : "umenu",
					"numinlets" : 1,
					"numoutlets" : 3,
					"outlettype" : [ "int", "", "" ],
					"parameter_enable" : 0,
					"patching_rect" : [ 454.553191542625427, 393.343282461166382, 231.5, 22.0 ]
				}

			}
, 			{
				"box" : 				{
					"id" : "obj-165",
					"maxclass" : "message",
					"numinlets" : 2,
					"numoutlets" : 1,
					"outlettype" : [ "" ],
					"patching_rect" : [ 497.553191542625427, 532.631139576435089, 29.5, 22.0 ],
					"text" : "2"
				}

			}
, 			{
				"box" : 				{
					"id" : "obj-167",
					"maxclass" : "message",
					"numinlets" : 2,
					"numoutlets" : 1,
					"outlettype" : [ "" ],
					"patching_rect" : [ 454.553191542625427, 532.631139576435089, 29.5, 22.0 ],
					"text" : "1"
				}

			}
, 			{
				"box" : 				{
					"id" : "obj-182",
					"maxclass" : "newobj",
					"numinlets" : 2,
					"numoutlets" : 2,
					"outlettype" : [ "", "int" ],
					"patching_rect" : [ 497.553191542625427, 610.417908072471619, 101.0, 22.0 ],
					"text" : "adstatus output 2"
				}

			}
, 			{
				"box" : 				{
					"id" : "obj-183",
					"maxclass" : "newobj",
					"numinlets" : 2,
					"numoutlets" : 2,
					"outlettype" : [ "", "int" ],
					"patching_rect" : [ 454.553191542625427, 575.955221772193909, 101.0, 22.0 ],
					"text" : "adstatus output 1"
				}

			}
, 			{
				"box" : 				{
					"id" : "obj-184",
					"maxclass" : "message",
					"numinlets" : 2,
					"numoutlets" : 1,
					"outlettype" : [ "" ],
					"patching_rect" : [ 1108.545723438262939, 321.0, 29.5, 22.0 ],
					"text" : "100"
				}

			}
, 			{
				"box" : 				{
					"id" : "obj-185",
					"maxclass" : "newobj",
					"numinlets" : 2,
					"numoutlets" : 2,
					"outlettype" : [ "", "int" ],
					"patching_rect" : [ 1108.545723438262939, 362.0, 98.0, 22.0 ],
					"text" : "adstatus cpulimit"
				}

			}
, 			{
				"box" : 				{
					"id" : "obj-186",
					"maxclass" : "message",
					"numinlets" : 2,
					"numoutlets" : 1,
					"outlettype" : [ "" ],
					"patching_rect" : [ 978.803189754486084, 321.0, 29.5, 22.0 ],
					"text" : "6"
				}

			}
, 			{
				"box" : 				{
					"id" : "obj-187",
					"maxclass" : "newobj",
					"numinlets" : 2,
					"numoutlets" : 2,
					"outlettype" : [ "", "int" ],
					"patching_rect" : [ 978.803189754486084, 362.0, 85.0, 22.0 ],
					"text" : "adstatus sigvs"
				}

			}
, 			{
				"box" : 				{
					"id" : "obj-188",
					"linecount" : 2,
					"maxclass" : "comment",
					"numinlets" : 1,
					"numoutlets" : 0,
					"patching_rect" : [ 811.366623044013977, 426.328356981277466, 159.5, 35.0 ],
					"text" : "48000\n(sample rate設定 超級重要)",
					"textcolor" : [ 1.0, 0.0, 0.0, 1.0 ]
				}

			}
, 			{
				"box" : 				{
					"id" : "obj-189",
					"maxclass" : "newobj",
					"numinlets" : 2,
					"numoutlets" : 2,
					"outlettype" : [ "", "int" ],
					"patching_rect" : [ 818.866623044013977, 362.0, 67.0, 22.0 ],
					"text" : "adstatus sr"
				}

			}
, 			{
				"box" : 				{
					"id" : "obj-190",
					"maxclass" : "message",
					"numinlets" : 2,
					"numoutlets" : 1,
					"outlettype" : [ "" ],
					"patching_rect" : [ 701.366623044013977, 321.0, 29.5, 22.0 ],
					"text" : "1"
				}

			}
, 			{
				"box" : 				{
					"id" : "obj-191",
					"maxclass" : "newobj",
					"numinlets" : 2,
					"numoutlets" : 2,
					"outlettype" : [ "", "int" ],
					"patching_rect" : [ 701.366623044013977, 362.0, 91.0, 22.0 ],
					"text" : "adstatus switch"
				}

			}
, 			{
				"box" : 				{
					"id" : "obj-192",
					"maxclass" : "message",
					"numinlets" : 2,
					"numoutlets" : 1,
					"outlettype" : [ "" ],
					"patching_rect" : [ 454.553191542625427, 321.0, 29.5, 22.0 ],
					"text" : "1"
				}

			}
, 			{
				"box" : 				{
					"id" : "obj-193",
					"maxclass" : "newobj",
					"numinlets" : 1,
					"numoutlets" : 1,
					"outlettype" : [ "bang" ],
					"patching_rect" : [ 454.553191542625427, 276.985074520111084, 58.0, 22.0 ],
					"text" : "loadbang"
				}

			}
, 			{
				"box" : 				{
					"id" : "obj-194",
					"maxclass" : "newobj",
					"numinlets" : 2,
					"numoutlets" : 2,
					"outlettype" : [ "", "int" ],
					"patching_rect" : [ 454.553191542625427, 362.0, 132.5, 22.0 ],
					"text" : "adstatus driver"
				}

			}
, 			{
				"box" : 				{
					"id" : "obj-13",
					"maxclass" : "newobj",
					"numinlets" : 1,
					"numoutlets" : 2,
					"outlettype" : [ "bang", "bang" ],
					"patching_rect" : [ 630.595744132995605, 68.829788208007812, 32.0, 22.0 ],
					"text" : "t b b"
				}

			}
, 			{
				"box" : 				{
					"id" : "obj-15",
					"maxclass" : "button",
					"numinlets" : 1,
					"numoutlets" : 1,
					"outlettype" : [ "bang" ],
					"parameter_enable" : 0,
					"patching_rect" : [ 572.595744132995605, 35.829788208007812, 24.0, 24.0 ]
				}

			}
, 			{
				"box" : 				{
					"id" : "obj-27",
					"maxclass" : "newobj",
					"numinlets" : 1,
					"numoutlets" : 1,
					"outlettype" : [ "bang" ],
					"patching_rect" : [ 604.595744132995605, 36.829788208007812, 58.0, 22.0 ],
					"text" : "loadbang"
				}

			}
, 			{
				"box" : 				{
					"id" : "obj-153",
					"maxclass" : "comment",
					"numinlets" : 1,
					"numoutlets" : 0,
					"patching_rect" : [ 764.095744132995605, 37.829788208007812, 150.0, 20.0 ],
					"text" : "load panoramix file.txt"
				}

			}
, 			{
				"box" : 				{
					"id" : "obj-138",
					"maxclass" : "newobj",
					"numinlets" : 2,
					"numoutlets" : 2,
					"outlettype" : [ "", "" ],
					"patching_rect" : [ 708.095744132995605, 104.829788208007812, 55.0, 22.0 ],
					"text" : "route set"
				}

			}
, 			{
				"box" : 				{
					"fontname" : "Arial",
					"fontsize" : 13.0,
					"id" : "obj-137",
					"maxclass" : "message",
					"numinlets" : 2,
					"numoutlets" : 1,
					"outlettype" : [ "" ],
					"patching_rect" : [ 708.095744132995605, 37.829788208007812, 44.0, 23.0 ],
					"text" : "dump"
				}

			}
, 			{
				"box" : 				{
					"id" : "obj-135",
					"maxclass" : "newobj",
					"numinlets" : 1,
					"numoutlets" : 3,
					"outlettype" : [ "", "bang", "int" ],
					"patching_rect" : [ 708.095744132995605, 68.829788208007812, 203.0, 22.0 ],
					"text" : "text 10Mono64channelPanoramix.txt"
				}

			}
, 			{
				"box" : 				{
					"id" : "obj-67",
					"linecount" : 16,
					"maxclass" : "message",
					"numinlets" : 2,
					"numoutlets" : 1,
					"outlettype" : [ "" ],
					"patching_rect" : [ 9.0, 605.0, 127.0, 229.0 ],
					"text" : "-120 -120 -120 -120 -120 -120 -120 -120 -120 -120 -120 -120 -120 -120 -120 -120 -120 -120 -120 -120 -120 -120 -120 -120 -120 -120 -120 -120 -120 -120 -120 -120 -120 -120 -120 -120 -120 -120 -120 -120 -120 -120 -120 -120 -120 -120 -120 -120 -120 -120 -120 -120 -120 -120 -120 -120 -120 -120 -120 -120 -120 -120 -120 -120"
				}

			}
, 			{
				"box" : 				{
					"id" : "obj-59",
					"markers" : [ -60, -48, -36, -24, -12, -6, 0, 6 ],
					"markersused" : 8,
					"maxclass" : "levelmeter~",
					"numinlets" : 1,
					"numoutlets" : 1,
					"outlettype" : [ "" ],
					"patching_rect" : [ 9.0, 512.0, 128.0, 64.0 ]
				}

			}
, 			{
				"box" : 				{
					"id" : "obj-48",
					"maxclass" : "newobj",
					"numinlets" : 1,
					"numoutlets" : 0,
					"patching_rect" : [ 59.0, 470.0, 75.0, 22.0 ],
					"text" : "mc.dac~"
				}

			}
, 			{
				"box" : 				{
					"id" : "obj-25",
					"maxclass" : "newobj",
					"numinlets" : 10,
					"numoutlets" : 1,
					"outlettype" : [ "multichannelsignal" ],
					"patching_rect" : [ 9.0, 287.0, 113.5, 22.0 ],
					"text" : "mc.pack~ 10"
				}

			}
, 			{
				"box" : 				{
					"id" : "obj-20",
					"lastchannelcount" : 64,
					"maxclass" : "mc.live.gain~",
					"numinlets" : 1,
					"numoutlets" : 4,
					"outlettype" : [ "multichannelsignal", "", "float", "list" ],
					"parameter_enable" : 1,
					"patching_rect" : [ 9.0, 362.0, 190.0, 86.0 ],
					"relative" : 1,
					"saved_attribute_attributes" : 					{
						"valueof" : 						{
							"parameter_longname" : "mc.live.gain~[1]",
							"parameter_mmax" : 6.0,
							"parameter_mmin" : -70.0,
							"parameter_shortname" : "master",
							"parameter_type" : 0,
							"parameter_unitstyle" : 4
						}

					}
,
					"varname" : "mc.live.gain~[1]"
				}

			}
, 			{
				"box" : 				{
					"id" : "obj-24",
					"maxclass" : "message",
					"numinlets" : 2,
					"numoutlets" : 1,
					"outlettype" : [ "" ],
					"patching_rect" : [ 26.659576058387756, 75.553192257881165, 57.0, 22.0 ],
					"text" : "/dsp/post"
				}

			}
, 			{
				"box" : 				{
					"id" : "obj-12",
					"maxclass" : "live.toggle",
					"numinlets" : 1,
					"numoutlets" : 1,
					"outlettype" : [ "" ],
					"parameter_enable" : 1,
					"patching_rect" : [ 335.159576058387756, 49.553192257881165, 15.0, 15.0 ],
					"saved_attribute_attributes" : 					{
						"valueof" : 						{
							"parameter_enum" : [ "off", "on" ],
							"parameter_initial" : [ 1.0 ],
							"parameter_initial_enable" : 1,
							"parameter_longname" : "live.toggle[11]",
							"parameter_mmax" : 1,
							"parameter_shortname" : "live.toggle[5]",
							"parameter_type" : 2
						}

					}
,
					"varname" : "live.toggle"
				}

			}
, 			{
				"box" : 				{
					"fontsize" : 11.0,
					"id" : "obj-9",
					"maxclass" : "message",
					"numinlets" : 2,
					"numoutlets" : 1,
					"outlettype" : [ "" ],
					"patching_rect" : [ 334.659576058387756, 67.553192257881165, 72.0, 21.0 ],
					"text" : "/vumeters $1"
				}

			}
, 			{
				"box" : 				{
					"fontname" : "Arial",
					"fontsize" : 11.0,
					"id" : "obj-87",
					"maxclass" : "newobj",
					"numinlets" : 0,
					"numoutlets" : 1,
					"outlettype" : [ "" ],
					"patching_rect" : [ 419.659576058387756, 67.553192257881165, 125.0, 21.0 ],
					"text" : "spat5.dsp.management"
				}

			}
, 			{
				"box" : 				{
					"bgmode" : 0,
					"border" : 0,
					"clickthrough" : 0,
					"enablehscroll" : 0,
					"enablevscroll" : 0,
					"id" : "obj-16",
					"lockeddragscroll" : 0,
					"lockedsize" : 0,
					"maxclass" : "bpatcher",
					"name" : "spat5.gui.control.maxpat",
					"numinlets" : 1,
					"numoutlets" : 1,
					"offset" : [ 0.0, 0.0 ],
					"outlettype" : [ "" ],
					"patching_rect" : [ 920.095744132995605, 68.829788208007812, 291.5, 40.0 ],
					"viewvisibility" : 1
				}

			}
, 			{
				"box" : 				{
					"bgmode" : 0,
					"border" : 0,
					"clickthrough" : 0,
					"enablehscroll" : 0,
					"enablevscroll" : 0,
					"id" : "obj-57",
					"lockeddragscroll" : 0,
					"lockedsize" : 0,
					"maxclass" : "bpatcher",
					"name" : "spat5.dsp.control.maxpat",
					"numinlets" : 1,
					"numoutlets" : 1,
					"offset" : [ 0.0, 0.0 ],
					"outlettype" : [ "" ],
					"patching_rect" : [ 90.659576058387756, 39.553192257881165, 110.0, 57.0 ],
					"viewvisibility" : 1
				}

			}
, 			{
				"box" : 				{
					"focusbordercolor" : [ 0.0, 0.019608, 0.078431, 0.0 ],
					"id" : "obj-31",
					"maxclass" : "live.dial",
					"numinlets" : 1,
					"numoutlets" : 2,
					"outlettype" : [ "", "float" ],
					"parameter_enable" : 1,
					"patching_rect" : [ 236.659576058387756, 18.553192257881165, 44.0, 48.0 ],
					"saved_attribute_attributes" : 					{
						"focusbordercolor" : 						{
							"expression" : ""
						}
,
						"valueof" : 						{
							"parameter_initial" : [ 60.0 ],
							"parameter_initial_enable" : 1,
							"parameter_longname" : " ",
							"parameter_mmax" : 500.0,
							"parameter_mmin" : 20.0,
							"parameter_shortname" : " ",
							"parameter_type" : 0,
							"parameter_unitstyle" : 2
						}

					}
,
					"varname" : "live.dial[1]"
				}

			}
, 			{
				"box" : 				{
					"fontsize" : 11.0,
					"id" : "obj-29",
					"maxclass" : "message",
					"numinlets" : 2,
					"numoutlets" : 1,
					"outlettype" : [ "" ],
					"patching_rect" : [ 236.659576058387756, 67.553192257881165, 96.0, 21.0 ],
					"text" : "/vumeters/rate $1"
				}

			}
, 			{
				"box" : 				{
					"fontname" : "Arial",
					"fontsize" : 11.0,
					"id" : "obj-8",
					"maxclass" : "newobj",
					"numinlets" : 1,
					"numoutlets" : 1,
					"outlettype" : [ "" ],
					"patching_rect" : [ 236.659576058387756, 264.0, 29.0, 21.0 ],
					"text" : "thru"
				}

			}
, 			{
				"box" : 				{
					"id" : "obj-7",
					"maxclass" : "comment",
					"numinlets" : 1,
					"numoutlets" : 0,
					"patching_rect" : [ 9.0, 194.127660989761353, 99.0, 22.0 ],
					"text" : "播放音樂"
				}

			}
 ],
		"lines" : [ 			{
				"patchline" : 				{
					"destination" : [ "obj-3", 0 ],
					"source" : [ "obj-10", 0 ]
				}

			}
, 			{
				"patchline" : 				{
					"destination" : [ "obj-101", 0 ],
					"source" : [ "obj-100", 0 ]
				}

			}
, 			{
				"patchline" : 				{
					"destination" : [ "obj-34", 0 ],
					"source" : [ "obj-101", 0 ]
				}

			}
, 			{
				"patchline" : 				{
					"destination" : [ "obj-47", 0 ],
					"midpoints" : [ 2337.5, 193.127660989761353, 2232.5, 193.127660989761353 ],
					"source" : [ "obj-107", 0 ]
				}

			}
, 			{
				"patchline" : 				{
					"destination" : [ "obj-107", 0 ],
					"source" : [ "obj-109", 0 ]
				}

			}
, 			{
				"patchline" : 				{
					"destination" : [ "obj-30", 0 ],
					"midpoints" : [ 1618.0, 350.127660989761353, 1415.0, 350.127660989761353 ],
					"source" : [ "obj-11", 0 ]
				}

			}
, 			{
				"patchline" : 				{
					"destination" : [ "obj-111", 0 ],
					"source" : [ "obj-110", 0 ]
				}

			}
, 			{
				"patchline" : 				{
					"destination" : [ "obj-47", 0 ],
					"source" : [ "obj-111", 0 ]
				}

			}
, 			{
				"patchline" : 				{
					"destination" : [ "obj-152", 0 ],
					"midpoints" : [ 2403.5, 552.170211791992188, 2298.5, 552.170211791992188 ],
					"source" : [ "obj-113", 0 ]
				}

			}
, 			{
				"patchline" : 				{
					"destination" : [ "obj-113", 0 ],
					"source" : [ "obj-115", 0 ]
				}

			}
, 			{
				"patchline" : 				{
					"destination" : [ "obj-117", 0 ],
					"source" : [ "obj-116", 0 ]
				}

			}
, 			{
				"patchline" : 				{
					"destination" : [ "obj-152", 0 ],
					"source" : [ "obj-117", 0 ]
				}

			}
, 			{
				"patchline" : 				{
					"destination" : [ "obj-155", 0 ],
					"midpoints" : [ 2207.5, 548.170211791992188, 2102.5, 548.170211791992188 ],
					"source" : [ "obj-118", 0 ]
				}

			}
, 			{
				"patchline" : 				{
					"destination" : [ "obj-9", 0 ],
					"source" : [ "obj-12", 0 ]
				}

			}
, 			{
				"patchline" : 				{
					"destination" : [ "obj-118", 0 ],
					"source" : [ "obj-120", 0 ]
				}

			}
, 			{
				"patchline" : 				{
					"destination" : [ "obj-122", 0 ],
					"source" : [ "obj-121", 0 ]
				}

			}
, 			{
				"patchline" : 				{
					"destination" : [ "obj-155", 0 ],
					"source" : [ "obj-122", 0 ]
				}

			}
, 			{
				"patchline" : 				{
					"destination" : [ "obj-157", 0 ],
					"midpoints" : [ 1991.5, 546.170211791992188, 1886.5, 546.170211791992188 ],
					"source" : [ "obj-123", 0 ]
				}

			}
, 			{
				"patchline" : 				{
					"destination" : [ "obj-123", 0 ],
					"source" : [ "obj-125", 0 ]
				}

			}
, 			{
				"patchline" : 				{
					"destination" : [ "obj-127", 0 ],
					"source" : [ "obj-126", 0 ]
				}

			}
, 			{
				"patchline" : 				{
					"destination" : [ "obj-157", 0 ],
					"source" : [ "obj-127", 0 ]
				}

			}
, 			{
				"patchline" : 				{
					"destination" : [ "obj-159", 0 ],
					"midpoints" : [ 1789.5, 548.170211791992188, 1684.0, 548.170211791992188 ],
					"source" : [ "obj-128", 0 ]
				}

			}
, 			{
				"patchline" : 				{
					"destination" : [ "obj-137", 0 ],
					"midpoints" : [ 640.095744132995605, 106.829788208007812, 689.595744132995605, 106.829788208007812, 689.595744132995605, 14.829788208007812, 717.595744132995605, 14.829788208007812 ],
					"source" : [ "obj-13", 0 ]
				}

			}
, 			{
				"patchline" : 				{
					"destination" : [ "obj-17", 0 ],
					"midpoints" : [ 653.095744132995605, 152.0, 717.595744132995605, 152.0 ],
					"source" : [ "obj-13", 1 ]
				}

			}
, 			{
				"patchline" : 				{
					"destination" : [ "obj-128", 0 ],
					"source" : [ "obj-130", 0 ]
				}

			}
, 			{
				"patchline" : 				{
					"destination" : [ "obj-142", 0 ],
					"source" : [ "obj-131", 0 ]
				}

			}
, 			{
				"patchline" : 				{
					"destination" : [ "obj-182", 0 ],
					"source" : [ "obj-132", 0 ]
				}

			}
, 			{
				"patchline" : 				{
					"destination" : [ "obj-183", 0 ],
					"source" : [ "obj-133", 0 ]
				}

			}
, 			{
				"patchline" : 				{
					"destination" : [ "obj-187", 0 ],
					"midpoints" : [ 988.303189754486084, 418.611903548240662, 970.948652386665344, 418.611903548240662, 970.948652386665344, 356.671607255935669, 988.303189754486084, 356.671607255935669 ],
					"source" : [ "obj-134", 0 ]
				}

			}
, 			{
				"patchline" : 				{
					"destination" : [ "obj-138", 0 ],
					"source" : [ "obj-135", 0 ]
				}

			}
, 			{
				"patchline" : 				{
					"destination" : [ "obj-189", 0 ],
					"midpoints" : [ 828.366623044013977, 420.850709438323975, 811.523285150527954, 420.850709438323975, 811.523285150527954, 357.41787588596344, 828.366623044013977, 357.41787588596344 ],
					"source" : [ "obj-136", 0 ]
				}

			}
, 			{
				"patchline" : 				{
					"destination" : [ "obj-135", 0 ],
					"source" : [ "obj-137", 0 ]
				}

			}
, 			{
				"patchline" : 				{
					"destination" : [ "obj-17", 0 ],
					"source" : [ "obj-138", 0 ]
				}

			}
, 			{
				"patchline" : 				{
					"destination" : [ "obj-191", 0 ],
					"midpoints" : [ 710.866623044013977, 422.343246698379517, 692.859110236167908, 422.343246698379517, 692.859110236167908, 355.925338625907898, 710.866623044013977, 355.925338625907898 ],
					"source" : [ "obj-139", 0 ]
				}

			}
, 			{
				"patchline" : 				{
					"destination" : [ "obj-185", 0 ],
					"midpoints" : [ 1118.045723438262939, 419.358172178268433, 1099.306856751441956, 419.358172178268433, 1099.306856751441956, 356.671607255935669, 1118.045723438262939, 356.671607255935669 ],
					"source" : [ "obj-140", 0 ]
				}

			}
, 			{
				"patchline" : 				{
					"destination" : [ "obj-194", 0 ],
					"midpoints" : [ 464.053191542625427, 419.358172178268433, 445.150158882141113, 419.358172178268433, 445.150158882141113, 356.671607255935669, 464.053191542625427, 356.671607255935669 ],
					"source" : [ "obj-141", 0 ]
				}

			}
, 			{
				"patchline" : 				{
					"destination" : [ "obj-159", 0 ],
					"source" : [ "obj-142", 0 ]
				}

			}
, 			{
				"patchline" : 				{
					"destination" : [ "obj-152", 0 ],
					"midpoints" : [ 1324.5, 549.042550802230835, 2298.5, 549.042550802230835 ],
					"order" : 4,
					"source" : [ "obj-143", 0 ]
				}

			}
, 			{
				"patchline" : 				{
					"destination" : [ "obj-155", 0 ],
					"midpoints" : [ 1324.5, 547.042550802230835, 2102.5, 547.042550802230835 ],
					"order" : 3,
					"source" : [ "obj-143", 0 ]
				}

			}
, 			{
				"patchline" : 				{
					"destination" : [ "obj-157", 0 ],
					"midpoints" : [ 1324.5, 550.042550802230835, 1886.5, 550.042550802230835 ],
					"order" : 2,
					"source" : [ "obj-143", 0 ]
				}

			}
, 			{
				"patchline" : 				{
					"destination" : [ "obj-159", 0 ],
					"midpoints" : [ 1324.5, 550.042550802230835, 1684.0, 550.042550802230835 ],
					"order" : 1,
					"source" : [ "obj-143", 0 ]
				}

			}
, 			{
				"patchline" : 				{
					"destination" : [ "obj-161", 0 ],
					"midpoints" : [ 1324.5, 548.042550802230835, 1481.5, 548.042550802230835 ],
					"order" : 0,
					"source" : [ "obj-143", 0 ]
				}

			}
, 			{
				"patchline" : 				{
					"destination" : [ "obj-165", 0 ],
					"midpoints" : [ 464.053191542625427, 510.805931210517883, 507.053191542625427, 510.805931210517883 ],
					"order" : 2,
					"source" : [ "obj-144", 0 ]
				}

			}
, 			{
				"patchline" : 				{
					"destination" : [ "obj-167", 0 ],
					"order" : 3,
					"source" : [ "obj-144", 0 ]
				}

			}
, 			{
				"patchline" : 				{
					"destination" : [ "obj-38", 0 ],
					"midpoints" : [ 464.053191542625427, 509.0, 826.984162092208862, 509.0 ],
					"order" : 0,
					"source" : [ "obj-144", 0 ]
				}

			}
, 			{
				"patchline" : 				{
					"destination" : [ "obj-39", 0 ],
					"midpoints" : [ 464.053191542625427, 507.0, 783.984162092208862, 507.0 ],
					"order" : 1,
					"source" : [ "obj-144", 0 ]
				}

			}
, 			{
				"patchline" : 				{
					"destination" : [ "obj-161", 0 ],
					"midpoints" : [ 1586.5, 549.170211791992188, 1481.5, 549.170211791992188 ],
					"source" : [ "obj-145", 0 ]
				}

			}
, 			{
				"patchline" : 				{
					"destination" : [ "obj-145", 0 ],
					"source" : [ "obj-147", 0 ]
				}

			}
, 			{
				"patchline" : 				{
					"destination" : [ "obj-115", 0 ],
					"midpoints" : [ 1324.5, 455.042550802230835, 2403.5, 445.042550802230835 ],
					"order" : 0,
					"source" : [ "obj-148", 0 ]
				}

			}
, 			{
				"patchline" : 				{
					"destination" : [ "obj-116", 0 ],
					"midpoints" : [ 1324.5, 450.042550802230835, 2298.5, 450.042550802230835 ],
					"order" : 1,
					"source" : [ "obj-148", 0 ]
				}

			}
, 			{
				"patchline" : 				{
					"destination" : [ "obj-120", 0 ],
					"midpoints" : [ 1324.5, 453.042550802230835, 2207.5, 453.042550802230835 ],
					"order" : 2,
					"source" : [ "obj-148", 0 ]
				}

			}
, 			{
				"patchline" : 				{
					"destination" : [ "obj-121", 0 ],
					"midpoints" : [ 1324.5, 451.042550802230835, 2102.5, 451.042550802230835 ],
					"order" : 3,
					"source" : [ "obj-148", 0 ]
				}

			}
, 			{
				"patchline" : 				{
					"destination" : [ "obj-125", 0 ],
					"midpoints" : [ 1324.5, 451.042550802230835, 1991.5, 451.042550802230835 ],
					"order" : 4,
					"source" : [ "obj-148", 0 ]
				}

			}
, 			{
				"patchline" : 				{
					"destination" : [ "obj-126", 0 ],
					"midpoints" : [ 1324.5, 450.042550802230835, 1886.5, 450.042550802230835 ],
					"order" : 5,
					"source" : [ "obj-148", 0 ]
				}

			}
, 			{
				"patchline" : 				{
					"destination" : [ "obj-130", 0 ],
					"midpoints" : [ 1324.5, 452.042550802230835, 1789.5, 452.042550802230835 ],
					"order" : 6,
					"source" : [ "obj-148", 0 ]
				}

			}
, 			{
				"patchline" : 				{
					"destination" : [ "obj-131", 0 ],
					"midpoints" : [ 1324.5, 448.042550802230835, 1684.5, 448.042550802230835 ],
					"order" : 7,
					"source" : [ "obj-148", 0 ]
				}

			}
, 			{
				"patchline" : 				{
					"destination" : [ "obj-143", 0 ],
					"order" : 10,
					"source" : [ "obj-148", 0 ]
				}

			}
, 			{
				"patchline" : 				{
					"destination" : [ "obj-147", 0 ],
					"midpoints" : [ 1324.5, 454.042550802230835, 1586.5, 454.042550802230835 ],
					"order" : 8,
					"source" : [ "obj-148", 0 ]
				}

			}
, 			{
				"patchline" : 				{
					"destination" : [ "obj-149", 0 ],
					"midpoints" : [ 1324.5, 452.042550802230835, 1481.5, 452.042550802230835 ],
					"order" : 9,
					"source" : [ "obj-148", 0 ]
				}

			}
, 			{
				"patchline" : 				{
					"destination" : [ "obj-150", 0 ],
					"source" : [ "obj-149", 0 ]
				}

			}
, 			{
				"patchline" : 				{
					"destination" : [ "obj-13", 0 ],
					"source" : [ "obj-15", 0 ]
				}

			}
, 			{
				"patchline" : 				{
					"destination" : [ "obj-161", 0 ],
					"source" : [ "obj-150", 0 ]
				}

			}
, 			{
				"patchline" : 				{
					"destination" : [ "obj-30", 0 ],
					"midpoints" : [ 2298.5, 722.0, 1415.0, 722.0 ],
					"source" : [ "obj-151", 0 ]
				}

			}
, 			{
				"patchline" : 				{
					"destination" : [ "obj-151", 0 ],
					"source" : [ "obj-152", 0 ]
				}

			}
, 			{
				"patchline" : 				{
					"destination" : [ "obj-30", 0 ],
					"midpoints" : [ 2102.5, 722.0, 1415.0, 722.0 ],
					"source" : [ "obj-154", 0 ]
				}

			}
, 			{
				"patchline" : 				{
					"destination" : [ "obj-154", 0 ],
					"source" : [ "obj-155", 0 ]
				}

			}
, 			{
				"patchline" : 				{
					"destination" : [ "obj-30", 0 ],
					"midpoints" : [ 1886.5, 720.0, 1415.0, 720.0 ],
					"source" : [ "obj-156", 0 ]
				}

			}
, 			{
				"patchline" : 				{
					"destination" : [ "obj-156", 0 ],
					"source" : [ "obj-157", 0 ]
				}

			}
, 			{
				"patchline" : 				{
					"destination" : [ "obj-30", 0 ],
					"midpoints" : [ 1684.0, 722.0, 1415.0, 722.0 ],
					"source" : [ "obj-158", 0 ]
				}

			}
, 			{
				"patchline" : 				{
					"destination" : [ "obj-158", 0 ],
					"source" : [ "obj-159", 0 ]
				}

			}
, 			{
				"patchline" : 				{
					"destination" : [ "obj-17", 0 ],
					"midpoints" : [ 929.595744132995605, 139.0, 717.595744132995605, 139.0 ],
					"source" : [ "obj-16", 0 ]
				}

			}
, 			{
				"patchline" : 				{
					"destination" : [ "obj-30", 0 ],
					"midpoints" : [ 1481.5, 722.0, 1415.0, 722.0 ],
					"source" : [ "obj-160", 0 ]
				}

			}
, 			{
				"patchline" : 				{
					"destination" : [ "obj-160", 0 ],
					"source" : [ "obj-161", 0 ]
				}

			}
, 			{
				"patchline" : 				{
					"destination" : [ "obj-148", 0 ],
					"order" : 0,
					"source" : [ "obj-163", 0 ]
				}

			}
, 			{
				"patchline" : 				{
					"destination" : [ "obj-77", 0 ],
					"order" : 1,
					"source" : [ "obj-163", 0 ]
				}

			}
, 			{
				"patchline" : 				{
					"destination" : [ "obj-182", 0 ],
					"source" : [ "obj-165", 0 ]
				}

			}
, 			{
				"patchline" : 				{
					"destination" : [ "obj-183", 0 ],
					"source" : [ "obj-167", 0 ]
				}

			}
, 			{
				"patchline" : 				{
					"destination" : [ "obj-8", 0 ],
					"midpoints" : [ 717.595744132995605, 241.0, 246.159576058387756, 241.0 ],
					"source" : [ "obj-17", 0 ]
				}

			}
, 			{
				"patchline" : 				{
					"destination" : [ "obj-132", 0 ],
					"source" : [ "obj-182", 0 ]
				}

			}
, 			{
				"patchline" : 				{
					"destination" : [ "obj-133", 0 ],
					"source" : [ "obj-183", 0 ]
				}

			}
, 			{
				"patchline" : 				{
					"destination" : [ "obj-185", 0 ],
					"source" : [ "obj-184", 0 ]
				}

			}
, 			{
				"patchline" : 				{
					"destination" : [ "obj-140", 0 ],
					"source" : [ "obj-185", 0 ]
				}

			}
, 			{
				"patchline" : 				{
					"destination" : [ "obj-187", 0 ],
					"source" : [ "obj-186", 0 ]
				}

			}
, 			{
				"patchline" : 				{
					"destination" : [ "obj-134", 0 ],
					"source" : [ "obj-187", 0 ]
				}

			}
, 			{
				"patchline" : 				{
					"destination" : [ "obj-136", 0 ],
					"source" : [ "obj-189", 0 ]
				}

			}
, 			{
				"patchline" : 				{
					"destination" : [ "obj-11", 0 ],
					"source" : [ "obj-19", 0 ]
				}

			}
, 			{
				"patchline" : 				{
					"destination" : [ "obj-191", 0 ],
					"source" : [ "obj-190", 0 ]
				}

			}
, 			{
				"patchline" : 				{
					"destination" : [ "obj-139", 0 ],
					"source" : [ "obj-191", 0 ]
				}

			}
, 			{
				"patchline" : 				{
					"destination" : [ "obj-144", 0 ],
					"midpoints" : [ 464.053191542625427, 308.402952194213867, 431.262099981307983, 308.402952194213867, 431.262099981307983, 427.567127108573914, 464.053191542625427, 427.567127108573914 ],
					"order" : 3,
					"source" : [ "obj-193", 0 ]
				}

			}
, 			{
				"patchline" : 				{
					"destination" : [ "obj-184", 0 ],
					"midpoints" : [ 464.053191542625427, 306.671609044075012, 1118.045723438262939, 306.671609044075012 ],
					"order" : 0,
					"source" : [ "obj-193", 0 ]
				}

			}
, 			{
				"patchline" : 				{
					"destination" : [ "obj-186", 0 ],
					"midpoints" : [ 464.053191542625427, 306.417877674102783, 988.303189754486084, 306.417877674102783 ],
					"order" : 1,
					"source" : [ "obj-193", 0 ]
				}

			}
, 			{
				"patchline" : 				{
					"destination" : [ "obj-190", 0 ],
					"midpoints" : [ 464.053191542625427, 307.417877674102783, 710.866623044013977, 307.417877674102783 ],
					"order" : 2,
					"source" : [ "obj-193", 0 ]
				}

			}
, 			{
				"patchline" : 				{
					"destination" : [ "obj-192", 0 ],
					"midpoints" : [ 464.053191542625427, 308.402982592582703, 464.053191542625427, 308.402982592582703 ],
					"order" : 4,
					"source" : [ "obj-193", 0 ]
				}

			}
, 			{
				"patchline" : 				{
					"destination" : [ "obj-141", 0 ],
					"source" : [ "obj-194", 0 ]
				}

			}
, 			{
				"patchline" : 				{
					"destination" : [ "obj-48", 0 ],
					"order" : 0,
					"source" : [ "obj-20", 0 ]
				}

			}
, 			{
				"patchline" : 				{
					"destination" : [ "obj-59", 0 ],
					"order" : 1,
					"source" : [ "obj-20", 0 ]
				}

			}
, 			{
				"patchline" : 				{
					"destination" : [ "obj-20", 0 ],
					"source" : [ "obj-21", 0 ]
				}

			}
, 			{
				"patchline" : 				{
					"destination" : [ "obj-148", 0 ],
					"order" : 0,
					"source" : [ "obj-22", 0 ]
				}

			}
, 			{
				"patchline" : 				{
					"destination" : [ "obj-77", 0 ],
					"order" : 1,
					"source" : [ "obj-22", 0 ]
				}

			}
, 			{
				"patchline" : 				{
					"destination" : [ "obj-8", 0 ],
					"midpoints" : [ 36.159576058387756, 107.553192257881165, 246.159576058387756, 107.553192257881165 ],
					"source" : [ "obj-24", 0 ]
				}

			}
, 			{
				"patchline" : 				{
					"destination" : [ "obj-21", 0 ],
					"source" : [ "obj-25", 0 ]
				}

			}
, 			{
				"patchline" : 				{
					"destination" : [ "obj-40", 0 ],
					"source" : [ "obj-26", 0 ]
				}

			}
, 			{
				"patchline" : 				{
					"destination" : [ "obj-13", 0 ],
					"source" : [ "obj-27", 0 ]
				}

			}
, 			{
				"patchline" : 				{
					"destination" : [ "obj-41", 0 ],
					"source" : [ "obj-28", 0 ]
				}

			}
, 			{
				"patchline" : 				{
					"destination" : [ "obj-8", 0 ],
					"midpoints" : [ 246.159576058387756, 104.553192257881165, 246.159576058387756, 104.553192257881165 ],
					"source" : [ "obj-29", 0 ]
				}

			}
, 			{
				"patchline" : 				{
					"destination" : [ "obj-30", 0 ],
					"source" : [ "obj-3", 0 ]
				}

			}
, 			{
				"patchline" : 				{
					"destination" : [ "obj-17", 0 ],
					"midpoints" : [ 1415.0, 828.0, 1219.0, 828.0, 1219.0, 139.0, 717.595744132995605, 139.0 ],
					"source" : [ "obj-30", 0 ]
				}

			}
, 			{
				"patchline" : 				{
					"destination" : [ "obj-29", 0 ],
					"source" : [ "obj-31", 0 ]
				}

			}
, 			{
				"patchline" : 				{
					"destination" : [ "obj-30", 0 ],
					"midpoints" : [ 2036.5, 352.127660989761353, 1415.0, 352.127660989761353 ],
					"source" : [ "obj-32", 0 ]
				}

			}
, 			{
				"patchline" : 				{
					"destination" : [ "obj-32", 0 ],
					"source" : [ "obj-34", 0 ]
				}

			}
, 			{
				"patchline" : 				{
					"destination" : [ "obj-30", 0 ],
					"midpoints" : [ 1820.5, 351.127660989761353, 1415.0, 351.127660989761353 ],
					"source" : [ "obj-35", 0 ]
				}

			}
, 			{
				"patchline" : 				{
					"destination" : [ "obj-35", 0 ],
					"source" : [ "obj-36", 0 ]
				}

			}
, 			{
				"patchline" : 				{
					"destination" : [ "obj-25", 9 ],
					"order" : 0,
					"source" : [ "obj-37", 1 ]
				}

			}
, 			{
				"patchline" : 				{
					"destination" : [ "obj-25", 8 ],
					"order" : 1,
					"source" : [ "obj-37", 1 ]
				}

			}
, 			{
				"patchline" : 				{
					"destination" : [ "obj-25", 7 ],
					"order" : 2,
					"source" : [ "obj-37", 1 ]
				}

			}
, 			{
				"patchline" : 				{
					"destination" : [ "obj-25", 6 ],
					"order" : 3,
					"source" : [ "obj-37", 1 ]
				}

			}
, 			{
				"patchline" : 				{
					"destination" : [ "obj-25", 1 ],
					"order" : 4,
					"source" : [ "obj-37", 1 ]
				}

			}
, 			{
				"patchline" : 				{
					"destination" : [ "obj-25", 5 ],
					"order" : 0,
					"source" : [ "obj-37", 0 ]
				}

			}
, 			{
				"patchline" : 				{
					"destination" : [ "obj-25", 4 ],
					"order" : 1,
					"source" : [ "obj-37", 0 ]
				}

			}
, 			{
				"patchline" : 				{
					"destination" : [ "obj-25", 3 ],
					"order" : 2,
					"source" : [ "obj-37", 0 ]
				}

			}
, 			{
				"patchline" : 				{
					"destination" : [ "obj-25", 2 ],
					"order" : 3,
					"source" : [ "obj-37", 0 ]
				}

			}
, 			{
				"patchline" : 				{
					"destination" : [ "obj-25", 0 ],
					"order" : 4,
					"source" : [ "obj-37", 0 ]
				}

			}
, 			{
				"patchline" : 				{
					"destination" : [ "obj-40", 0 ],
					"source" : [ "obj-38", 0 ]
				}

			}
, 			{
				"patchline" : 				{
					"destination" : [ "obj-41", 0 ],
					"source" : [ "obj-39", 0 ]
				}

			}
, 			{
				"patchline" : 				{
					"destination" : [ "obj-26", 0 ],
					"source" : [ "obj-40", 0 ]
				}

			}
, 			{
				"patchline" : 				{
					"destination" : [ "obj-28", 0 ],
					"source" : [ "obj-41", 0 ]
				}

			}
, 			{
				"patchline" : 				{
					"destination" : [ "obj-30", 0 ],
					"midpoints" : [ 2232.5, 350.127660989761353, 1415.0, 350.127660989761353 ],
					"source" : [ "obj-46", 0 ]
				}

			}
, 			{
				"patchline" : 				{
					"destination" : [ "obj-46", 0 ],
					"source" : [ "obj-47", 0 ]
				}

			}
, 			{
				"patchline" : 				{
					"destination" : [ "obj-8", 0 ],
					"midpoints" : [ 100.159576058387756, 107.553192257881165, 246.159576058387756, 107.553192257881165 ],
					"source" : [ "obj-57", 0 ]
				}

			}
, 			{
				"patchline" : 				{
					"destination" : [ "obj-67", 1 ],
					"source" : [ "obj-59", 0 ]
				}

			}
, 			{
				"patchline" : 				{
					"destination" : [ "obj-10", 0 ],
					"source" : [ "obj-70", 0 ]
				}

			}
, 			{
				"patchline" : 				{
					"destination" : [ "obj-70", 0 ],
					"source" : [ "obj-75", 0 ]
				}

			}
, 			{
				"patchline" : 				{
					"destination" : [ "obj-100", 0 ],
					"midpoints" : [ 1324.5, 92.0, 2036.5, 92.0 ],
					"order" : 3,
					"source" : [ "obj-77", 0 ]
				}

			}
, 			{
				"patchline" : 				{
					"destination" : [ "obj-109", 0 ],
					"midpoints" : [ 1324.5, 96.0, 2337.5, 86.0 ],
					"order" : 0,
					"source" : [ "obj-77", 0 ]
				}

			}
, 			{
				"patchline" : 				{
					"destination" : [ "obj-110", 0 ],
					"midpoints" : [ 1324.5, 91.0, 2232.5, 91.0 ],
					"order" : 1,
					"source" : [ "obj-77", 0 ]
				}

			}
, 			{
				"patchline" : 				{
					"destination" : [ "obj-75", 0 ],
					"midpoints" : [ 1324.5, 93.0, 1415.5, 93.0 ],
					"order" : 9,
					"source" : [ "obj-77", 0 ]
				}

			}
, 			{
				"patchline" : 				{
					"destination" : [ "obj-78", 0 ],
					"midpoints" : [ 1324.5, 95.0, 1520.5, 95.0 ],
					"order" : 8,
					"source" : [ "obj-77", 0 ]
				}

			}
, 			{
				"patchline" : 				{
					"destination" : [ "obj-81", 0 ],
					"order" : 10,
					"source" : [ "obj-77", 0 ]
				}

			}
, 			{
				"patchline" : 				{
					"destination" : [ "obj-84", 0 ],
					"midpoints" : [ 1324.5, 93.0, 1723.5, 93.0 ],
					"order" : 6,
					"source" : [ "obj-77", 0 ]
				}

			}
, 			{
				"patchline" : 				{
					"destination" : [ "obj-85", 0 ],
					"midpoints" : [ 1324.5, 89.0, 1618.5, 89.0 ],
					"order" : 7,
					"source" : [ "obj-77", 0 ]
				}

			}
, 			{
				"patchline" : 				{
					"destination" : [ "obj-90", 0 ],
					"midpoints" : [ 1324.5, 92.0, 1925.5, 92.0 ],
					"order" : 4,
					"source" : [ "obj-77", 0 ]
				}

			}
, 			{
				"patchline" : 				{
					"destination" : [ "obj-91", 0 ],
					"midpoints" : [ 1324.5, 91.0, 1820.5, 91.0 ],
					"order" : 5,
					"source" : [ "obj-77", 0 ]
				}

			}
, 			{
				"patchline" : 				{
					"destination" : [ "obj-99", 0 ],
					"midpoints" : [ 1324.5, 94.0, 2141.5, 94.0 ],
					"order" : 2,
					"source" : [ "obj-77", 0 ]
				}

			}
, 			{
				"patchline" : 				{
					"destination" : [ "obj-80", 0 ],
					"source" : [ "obj-78", 0 ]
				}

			}
, 			{
				"patchline" : 				{
					"destination" : [ "obj-21", 0 ],
					"midpoints" : [ 246.159576058387756, 317.0, 18.5, 317.0 ],
					"source" : [ "obj-8", 0 ]
				}

			}
, 			{
				"patchline" : 				{
					"destination" : [ "obj-10", 0 ],
					"midpoints" : [ 1520.5, 190.127660989761353, 1415.5, 190.127660989761353 ],
					"source" : [ "obj-80", 0 ]
				}

			}
, 			{
				"patchline" : 				{
					"destination" : [ "obj-10", 0 ],
					"midpoints" : [ 1324.5, 189.0, 1415.5, 189.0 ],
					"order" : 4,
					"source" : [ "obj-81", 0 ]
				}

			}
, 			{
				"patchline" : 				{
					"destination" : [ "obj-19", 0 ],
					"midpoints" : [ 1324.5, 191.0, 1618.0, 191.0 ],
					"order" : 3,
					"source" : [ "obj-81", 0 ]
				}

			}
, 			{
				"patchline" : 				{
					"destination" : [ "obj-34", 0 ],
					"midpoints" : [ 1324.5, 188.0, 2036.5, 188.0 ],
					"order" : 2,
					"source" : [ "obj-81", 0 ]
				}

			}
, 			{
				"patchline" : 				{
					"destination" : [ "obj-36", 0 ],
					"midpoints" : [ 1324.5, 191.0, 1820.5, 191.0 ],
					"order" : 1,
					"source" : [ "obj-81", 0 ]
				}

			}
, 			{
				"patchline" : 				{
					"destination" : [ "obj-47", 0 ],
					"midpoints" : [ 1324.5, 190.0, 2232.5, 190.0 ],
					"order" : 0,
					"source" : [ "obj-81", 0 ]
				}

			}
, 			{
				"patchline" : 				{
					"destination" : [ "obj-19", 0 ],
					"midpoints" : [ 1723.5, 189.127660989761353, 1618.0, 189.127660989761353 ],
					"source" : [ "obj-82", 0 ]
				}

			}
, 			{
				"patchline" : 				{
					"destination" : [ "obj-82", 0 ],
					"source" : [ "obj-84", 0 ]
				}

			}
, 			{
				"patchline" : 				{
					"destination" : [ "obj-86", 0 ],
					"source" : [ "obj-85", 0 ]
				}

			}
, 			{
				"patchline" : 				{
					"destination" : [ "obj-19", 0 ],
					"source" : [ "obj-86", 0 ]
				}

			}
, 			{
				"patchline" : 				{
					"destination" : [ "obj-8", 0 ],
					"midpoints" : [ 429.159576058387756, 107.80851137638092, 246.159576058387756, 107.80851137638092 ],
					"source" : [ "obj-87", 0 ]
				}

			}
, 			{
				"patchline" : 				{
					"destination" : [ "obj-36", 0 ],
					"midpoints" : [ 1925.5, 187.127660989761353, 1820.5, 187.127660989761353 ],
					"source" : [ "obj-88", 0 ]
				}

			}
, 			{
				"patchline" : 				{
					"destination" : [ "obj-8", 0 ],
					"midpoints" : [ 344.159576058387756, 105.680851817131042, 246.159576058387756, 105.680851817131042 ],
					"source" : [ "obj-9", 0 ]
				}

			}
, 			{
				"patchline" : 				{
					"destination" : [ "obj-88", 0 ],
					"source" : [ "obj-90", 0 ]
				}

			}
, 			{
				"patchline" : 				{
					"destination" : [ "obj-92", 0 ],
					"source" : [ "obj-91", 0 ]
				}

			}
, 			{
				"patchline" : 				{
					"destination" : [ "obj-36", 0 ],
					"source" : [ "obj-92", 0 ]
				}

			}
, 			{
				"patchline" : 				{
					"destination" : [ "obj-34", 0 ],
					"midpoints" : [ 2141.5, 189.127660989761353, 2036.5, 189.127660989761353 ],
					"source" : [ "obj-97", 0 ]
				}

			}
, 			{
				"patchline" : 				{
					"destination" : [ "obj-97", 0 ],
					"source" : [ "obj-99", 0 ]
				}

			}
 ],
		"parameters" : 		{
			"obj-10::obj-10" : [ "live.numbox[2]", "live.numbox", 0 ],
			"obj-10::obj-15" : [ "live.numbox[1]", "live.numbox", 0 ],
			"obj-10::obj-19" : [ "live.numbox[3]", "live.numbox", 0 ],
			"obj-10::obj-3" : [ "live.tab", "live.tab", 0 ],
			"obj-10::obj-7" : [ "live.numbox", "live.numbox", 0 ],
			"obj-12" : [ "live.toggle[11]", "live.toggle[5]", 0 ],
			"obj-152::obj-10" : [ "live.numbox[62]", "live.numbox", 0 ],
			"obj-152::obj-15" : [ "live.numbox[59]", "live.numbox", 0 ],
			"obj-152::obj-19" : [ "live.numbox[61]", "live.numbox", 0 ],
			"obj-152::obj-3" : [ "live.tab[17]", "live.tab", 0 ],
			"obj-152::obj-7" : [ "live.numbox[60]", "live.numbox", 0 ],
			"obj-155::obj-10" : [ "live.numbox[56]", "live.numbox", 0 ],
			"obj-155::obj-15" : [ "live.numbox[48]", "live.numbox", 0 ],
			"obj-155::obj-19" : [ "live.numbox[58]", "live.numbox", 0 ],
			"obj-155::obj-3" : [ "live.tab[16]", "live.tab", 0 ],
			"obj-155::obj-7" : [ "live.numbox[57]", "live.numbox", 0 ],
			"obj-157::obj-10" : [ "live.numbox[42]", "live.numbox", 0 ],
			"obj-157::obj-15" : [ "live.numbox[55]", "live.numbox", 0 ],
			"obj-157::obj-19" : [ "live.numbox[36]", "live.numbox", 0 ],
			"obj-157::obj-3" : [ "live.tab[15]", "live.tab", 0 ],
			"obj-157::obj-7" : [ "live.numbox[24]", "live.numbox", 0 ],
			"obj-159::obj-10" : [ "live.numbox[23]", "live.numbox", 0 ],
			"obj-159::obj-15" : [ "live.numbox[54]", "live.numbox", 0 ],
			"obj-159::obj-19" : [ "live.numbox[22]", "live.numbox", 0 ],
			"obj-159::obj-3" : [ "live.tab[14]", "live.tab", 0 ],
			"obj-159::obj-7" : [ "live.numbox[21]", "live.numbox", 0 ],
			"obj-161::obj-10" : [ "live.numbox[44]", "live.numbox", 0 ],
			"obj-161::obj-15" : [ "live.numbox[45]", "live.numbox", 0 ],
			"obj-161::obj-19" : [ "live.numbox[53]", "live.numbox", 0 ],
			"obj-161::obj-3" : [ "live.tab[13]", "live.tab", 0 ],
			"obj-161::obj-7" : [ "live.numbox[52]", "live.numbox", 0 ],
			"obj-16::obj-102" : [ "live.toggle[436]", "live.toggle", 0 ],
			"obj-16::obj-3" : [ "live.text[2]", "live.text[9]", 0 ],
			"obj-16::obj-57" : [ "live.text[9]", "live.text[9]", 0 ],
			"obj-16::obj-58" : [ "live.text[4]", "live.text[9]", 0 ],
			"obj-16::obj-62" : [ "live.text[3]", "live.text[9]", 0 ],
			"obj-16::obj-72" : [ "live.text[14]", "live.text[8]", 0 ],
			"obj-19::obj-10" : [ "live.numbox[5]", "live.numbox", 0 ],
			"obj-19::obj-15" : [ "live.numbox[7]", "live.numbox", 0 ],
			"obj-19::obj-19" : [ "live.numbox[4]", "live.numbox", 0 ],
			"obj-19::obj-3" : [ "live.tab[2]", "live.tab", 0 ],
			"obj-19::obj-7" : [ "live.numbox[6]", "live.numbox", 0 ],
			"obj-20" : [ "mc.live.gain~[1]", "master", 0 ],
			"obj-31" : [ " ", " ", 0 ],
			"obj-34::obj-10" : [ "live.numbox[14]", "live.numbox", 0 ],
			"obj-34::obj-15" : [ "live.numbox[15]", "live.numbox", 0 ],
			"obj-34::obj-19" : [ "live.numbox[13]", "live.numbox", 0 ],
			"obj-34::obj-3" : [ "live.tab[4]", "live.tab", 0 ],
			"obj-34::obj-7" : [ "live.numbox[12]", "live.numbox", 0 ],
			"obj-36::obj-10" : [ "live.numbox[9]", "live.numbox", 0 ],
			"obj-36::obj-15" : [ "live.numbox[11]", "live.numbox", 0 ],
			"obj-36::obj-19" : [ "live.numbox[8]", "live.numbox", 0 ],
			"obj-36::obj-3" : [ "live.tab[3]", "live.tab", 0 ],
			"obj-36::obj-7" : [ "live.numbox[10]", "live.numbox", 0 ],
			"obj-47::obj-10" : [ "live.numbox[30]", "live.numbox", 0 ],
			"obj-47::obj-15" : [ "live.numbox[31]", "live.numbox", 0 ],
			"obj-47::obj-19" : [ "live.numbox[18]", "live.numbox", 0 ],
			"obj-47::obj-3" : [ "live.tab[5]", "live.tab", 0 ],
			"obj-47::obj-7" : [ "live.numbox[27]", "live.numbox", 0 ],
			"obj-57::obj-58" : [ "live.text[10]", "live.text[9]", 0 ],
			"obj-57::obj-62" : [ "live.text[12]", "live.text[9]", 0 ],
			"obj-57::obj-6::obj-3" : [ "live.text", "live.text", 0 ],
			"obj-57::obj-6::obj-6" : [ "live.text[1]", "live.text", 0 ],
			"obj-87::obj-14" : [ "live.toggle[5]", "live.toggle[2]", 0 ],
			"obj-87::obj-25" : [ "live.toggle", "live.toggle", 0 ],
			"obj-87::obj-31" : [ "live.dial[9]", "automute", 0 ],
			"obj-87::obj-34" : [ "live.toggle[3]", "live.toggle[2]", 0 ],
			"obj-87::obj-37" : [ "live.toggle[2]", "live.toggle[2]", 0 ],
			"obj-87::obj-40::obj-8" : [ "live.toggle[6]", "live.toggle[6]", 0 ],
			"obj-87::obj-42" : [ "live.dial[1]", "ramp", 0 ],
			"obj-87::obj-50" : [ "live.dial[2]", "ramp", 0 ],
			"obj-87::obj-52" : [ "live.tab[1]", "live.tab[1]", 0 ],
			"obj-87::obj-55" : [ "live.toggle[4]", "live.toggle[2]", 0 ],
			"obj-87::obj-58" : [ "live.toggle[7]", "live.toggle[2]", 0 ],
			"obj-87::obj-66" : [ "live.dial[11]", "dry/wet", 0 ],
			"obj-87::obj-70" : [ "live.toggle[8]", "live.toggle[8]", 0 ],
			"obj-87::obj-7::obj-58" : [ "live.text[15]", "live.text[9]", 0 ],
			"obj-87::obj-7::obj-62" : [ "live.text[11]", "live.text[9]", 0 ],
			"obj-87::obj-7::obj-6::obj-3" : [ "live.text[6]", "live.text", 0 ],
			"obj-87::obj-7::obj-6::obj-6" : [ "live.text[5]", "live.text", 0 ],
			"parameterbanks" : 			{

			}
,
			"parameter_overrides" : 			{
				"obj-152::obj-10" : 				{
					"parameter_longname" : "live.numbox[62]"
				}
,
				"obj-152::obj-15" : 				{
					"parameter_longname" : "live.numbox[59]"
				}
,
				"obj-152::obj-19" : 				{
					"parameter_longname" : "live.numbox[61]"
				}
,
				"obj-152::obj-3" : 				{
					"parameter_longname" : "live.tab[17]"
				}
,
				"obj-152::obj-7" : 				{
					"parameter_longname" : "live.numbox[60]"
				}
,
				"obj-155::obj-10" : 				{
					"parameter_longname" : "live.numbox[56]"
				}
,
				"obj-155::obj-15" : 				{
					"parameter_longname" : "live.numbox[48]"
				}
,
				"obj-155::obj-19" : 				{
					"parameter_longname" : "live.numbox[58]"
				}
,
				"obj-155::obj-3" : 				{
					"parameter_longname" : "live.tab[16]"
				}
,
				"obj-155::obj-7" : 				{
					"parameter_longname" : "live.numbox[57]"
				}
,
				"obj-157::obj-10" : 				{
					"parameter_longname" : "live.numbox[42]"
				}
,
				"obj-157::obj-15" : 				{
					"parameter_longname" : "live.numbox[55]"
				}
,
				"obj-157::obj-19" : 				{
					"parameter_longname" : "live.numbox[36]"
				}
,
				"obj-157::obj-3" : 				{
					"parameter_longname" : "live.tab[15]"
				}
,
				"obj-157::obj-7" : 				{
					"parameter_longname" : "live.numbox[24]"
				}
,
				"obj-159::obj-10" : 				{
					"parameter_longname" : "live.numbox[23]"
				}
,
				"obj-159::obj-15" : 				{
					"parameter_longname" : "live.numbox[54]"
				}
,
				"obj-159::obj-19" : 				{
					"parameter_longname" : "live.numbox[22]"
				}
,
				"obj-159::obj-3" : 				{
					"parameter_longname" : "live.tab[14]"
				}
,
				"obj-159::obj-7" : 				{
					"parameter_longname" : "live.numbox[21]"
				}
,
				"obj-161::obj-10" : 				{
					"parameter_longname" : "live.numbox[44]"
				}
,
				"obj-161::obj-15" : 				{
					"parameter_longname" : "live.numbox[45]"
				}
,
				"obj-161::obj-19" : 				{
					"parameter_longname" : "live.numbox[53]"
				}
,
				"obj-161::obj-3" : 				{
					"parameter_longname" : "live.tab[13]"
				}
,
				"obj-161::obj-7" : 				{
					"parameter_longname" : "live.numbox[52]"
				}
,
				"obj-16::obj-3" : 				{
					"parameter_longname" : "live.text[2]"
				}
,
				"obj-16::obj-58" : 				{
					"parameter_longname" : "live.text[4]"
				}
,
				"obj-16::obj-62" : 				{
					"parameter_longname" : "live.text[3]"
				}
,
				"obj-19::obj-10" : 				{
					"parameter_longname" : "live.numbox[5]"
				}
,
				"obj-19::obj-15" : 				{
					"parameter_longname" : "live.numbox[7]"
				}
,
				"obj-19::obj-19" : 				{
					"parameter_longname" : "live.numbox[4]"
				}
,
				"obj-19::obj-3" : 				{
					"parameter_longname" : "live.tab[2]"
				}
,
				"obj-19::obj-7" : 				{
					"parameter_longname" : "live.numbox[6]"
				}
,
				"obj-34::obj-10" : 				{
					"parameter_longname" : "live.numbox[14]"
				}
,
				"obj-34::obj-15" : 				{
					"parameter_longname" : "live.numbox[15]"
				}
,
				"obj-34::obj-19" : 				{
					"parameter_longname" : "live.numbox[13]"
				}
,
				"obj-34::obj-3" : 				{
					"parameter_longname" : "live.tab[4]"
				}
,
				"obj-34::obj-7" : 				{
					"parameter_longname" : "live.numbox[12]"
				}
,
				"obj-36::obj-10" : 				{
					"parameter_longname" : "live.numbox[9]"
				}
,
				"obj-36::obj-15" : 				{
					"parameter_longname" : "live.numbox[11]"
				}
,
				"obj-36::obj-19" : 				{
					"parameter_longname" : "live.numbox[8]"
				}
,
				"obj-36::obj-3" : 				{
					"parameter_longname" : "live.tab[3]"
				}
,
				"obj-36::obj-7" : 				{
					"parameter_longname" : "live.numbox[10]"
				}
,
				"obj-47::obj-10" : 				{
					"parameter_longname" : "live.numbox[30]"
				}
,
				"obj-47::obj-15" : 				{
					"parameter_longname" : "live.numbox[31]"
				}
,
				"obj-47::obj-19" : 				{
					"parameter_longname" : "live.numbox[18]"
				}
,
				"obj-47::obj-3" : 				{
					"parameter_longname" : "live.tab[5]"
				}
,
				"obj-47::obj-7" : 				{
					"parameter_longname" : "live.numbox[27]"
				}
,
				"obj-87::obj-7::obj-58" : 				{
					"parameter_longname" : "live.text[15]"
				}
,
				"obj-87::obj-7::obj-62" : 				{
					"parameter_longname" : "live.text[11]"
				}
,
				"obj-87::obj-7::obj-6::obj-3" : 				{
					"parameter_longname" : "live.text[6]"
				}
,
				"obj-87::obj-7::obj-6::obj-6" : 				{
					"parameter_longname" : "live.text[5]"
				}

			}
,
			"inherited_shortname" : 1
		}
,
		"dependency_cache" : [ 			{
				"name" : "DesertBGM2.mp3",
				"bootpath" : "~/Documents/20220919_D/NTU/WFS/2024 Max/MaxEasyExample",
				"patcherrelativepath" : ".",
				"type" : "Mp3",
				"implicit" : 1
			}
, 			{
				"name" : "spat5.around.maxpat",
				"bootpath" : "~/Documents/Max 8/Packages/spat5/patchers",
				"patcherrelativepath" : "../../../../../Max 8/Packages/spat5/patchers",
				"type" : "JSON",
				"implicit" : 1
			}
, 			{
				"name" : "spat5.dsp.control.maxpat",
				"bootpath" : "~/Documents/Max 8/Packages/spat5/patchers",
				"patcherrelativepath" : "../../../../../Max 8/Packages/spat5/patchers",
				"type" : "JSON",
				"implicit" : 1
			}
, 			{
				"name" : "spat5.dsp.management.maxpat",
				"bootpath" : "~/Documents/Max 8/Packages/spat5/patchers",
				"patcherrelativepath" : "../../../../../Max 8/Packages/spat5/patchers",
				"type" : "JSON",
				"implicit" : 1
			}
, 			{
				"name" : "spat5.dsp.mute.bypass.maxpat",
				"bootpath" : "~/Documents/Max 8/Packages/spat5/patchers",
				"patcherrelativepath" : "../../../../../Max 8/Packages/spat5/patchers",
				"type" : "JSON",
				"implicit" : 1
			}
, 			{
				"name" : "spat5.gui.control.maxpat",
				"bootpath" : "~/Documents/Max 8/Packages/spat5/patchers",
				"patcherrelativepath" : "../../../../../Max 8/Packages/spat5/patchers",
				"type" : "JSON",
				"implicit" : 1
			}
, 			{
				"name" : "spat5.osc.route.mxe64",
				"type" : "mx64"
			}
, 			{
				"name" : "spat5.panoramix.mxe64",
				"type" : "mx64"
			}
, 			{
				"name" : "spat5.panoramix~.mxe64",
				"type" : "mx64"
			}
, 			{
				"name" : "thru.maxpat",
				"bootpath" : "C74:/patchers/m4l/Pluggo for Live resources/patches",
				"type" : "JSON",
				"implicit" : 1
			}
 ],
		"autosave" : 0,
		"styles" : [ 			{
				"name" : "AudioStatus_Menu",
				"default" : 				{
					"bgfillcolor" : 					{
						"angle" : 270.0,
						"autogradient" : 0,
						"color" : [ 0.294118, 0.313726, 0.337255, 1 ],
						"color1" : [ 0.454902, 0.462745, 0.482353, 0.0 ],
						"color2" : [ 0.290196, 0.309804, 0.301961, 1.0 ],
						"proportion" : 0.39,
						"type" : "color"
					}

				}
,
				"parentstyle" : "",
				"multi" : 0
			}
, 			{
				"name" : "Default 11Bold Poletti",
				"default" : 				{
					"fontsize" : [ 11.0 ]
				}
,
				"parentstyle" : "",
				"multi" : 0
			}
, 			{
				"name" : "Default M4L",
				"default" : 				{
					"fontname" : [ "Arial Bold" ],
					"fontsize" : [ 11.0 ],
					"patchlinecolor" : [ 0.290196, 0.309804, 0.301961, 0.85 ]
				}
,
				"parentstyle" : "",
				"multi" : 0
			}
, 			{
				"name" : "Default M4L Poletti",
				"default" : 				{
					"fontname" : [ "Arial Bold" ],
					"fontsize" : [ 10.0 ],
					"patchlinecolor" : [ 0.290196, 0.309804, 0.301961, 0.85 ]
				}
,
				"parentstyle" : "",
				"multi" : 0
			}
, 			{
				"name" : "Default M4L-1",
				"default" : 				{
					"bgfillcolor" : 					{
						"angle" : 270.0,
						"color" : [ 0.290196, 0.309804, 0.301961, 1.0 ],
						"color1" : [ 0.376471, 0.384314, 0.4, 1.0 ],
						"color2" : [ 0.290196, 0.309804, 0.301961, 1.0 ],
						"proportion" : 0.39,
						"type" : "gradient"
					}
,
					"fontface" : [ 1 ],
					"fontname" : [ "Arial" ],
					"fontsize" : [ 11.0 ]
				}
,
				"parentstyle" : "",
				"multi" : 0
			}
, 			{
				"name" : "Default Max7 Poletti",
				"default" : 				{
					"bgfillcolor" : 					{
						"angle" : 270.0,
						"color" : [ 0.290196, 0.309804, 0.301961, 1.0 ],
						"color1" : [ 0.376471, 0.384314, 0.4, 1.0 ],
						"color2" : [ 0.290196, 0.309804, 0.301961, 1.0 ],
						"proportion" : 0.39,
						"type" : "gradient"
					}

				}
,
				"parentstyle" : "",
				"multi" : 0
			}
, 			{
				"name" : "jbb",
				"default" : 				{
					"bgfillcolor" : 					{
						"angle" : 270.0,
						"color" : [ 0.290196, 0.309804, 0.301961, 1.0 ],
						"color1" : [ 0.376471, 0.384314, 0.4, 1.0 ],
						"color2" : [ 0.290196, 0.309804, 0.301961, 1.0 ],
						"proportion" : 0.39,
						"type" : "gradient"
					}
,
					"fontname" : [ "Arial" ],
					"fontsize" : [ 9.0 ]
				}
,
				"parentstyle" : "",
				"multi" : 0
			}
, 			{
				"name" : "ksliderWhite",
				"default" : 				{
					"color" : [ 1.0, 1.0, 1.0, 1.0 ]
				}
,
				"parentstyle" : "",
				"multi" : 0
			}
, 			{
				"name" : "newobjBlue-1",
				"default" : 				{
					"accentcolor" : [ 0.317647, 0.654902, 0.976471, 1.0 ]
				}
,
				"parentstyle" : "",
				"multi" : 0
			}
, 			{
				"name" : "newobjGreen-1",
				"default" : 				{
					"accentcolor" : [ 0.0, 0.533333, 0.168627, 1.0 ]
				}
,
				"parentstyle" : "",
				"multi" : 0
			}
, 			{
				"name" : "numberGold-1",
				"default" : 				{
					"accentcolor" : [ 0.764706, 0.592157, 0.101961, 1.0 ]
				}
,
				"parentstyle" : "",
				"multi" : 0
			}
 ]
	}

}
